<svg aria-hidden="true" style="position: absolute; width: 0; height: 0; overflow: hidden;" version="1.1" xmlns="http://www.w3.org/2000/svg" xmlns:xlink="http://www.w3.org/1999/xlink">
<defs>
<symbol id="svg-ic-licenses-addons" viewBox="0 0 32 32">
<title>ic-licenses-addons</title>
<path d="M16.578 31.177c-0 0-0.001 0-0.001 0-0.176 0-0.335-0.072-0.45-0.187l-0-0-4.541-4.549c-0.249 0.42-0.532 0.783-0.856 1.106l-0 0c-0.893 0.912-2.114 1.501-3.471 1.577l-0.014 0.001c-0.091 0.007-0.197 0.011-0.304 0.011-1.221 0-2.326-0.497-3.123-1.301l-0-0c-0.894-0.894-1.353-2.114-1.289-3.433 0.076-1.373 0.664-2.596 1.575-3.492l0.001-0.001c0.335-0.337 0.704-0.623 1.103-0.856l-4.539-4.55c-0.116-0.116-0.187-0.275-0.187-0.452s0.072-0.336 0.187-0.452v0l4.322-4.329c0.115-0.117 0.276-0.189 0.452-0.189 0.274 0 0.508 0.173 0.598 0.416l0.001 0.004c0.207 0.57 0.533 1.079 0.968 1.516 1.489 1.49 3.779 1.615 5.109 0.286 1.329-1.332 1.201-3.627-0.286-5.118-0.436-0.436-0.945-0.762-1.513-0.969-0.205-0.076-0.357-0.248-0.403-0.461l-0.001-0.004c-0.010-0.042-0.015-0.089-0.015-0.138 0-0.176 0.072-0.335 0.187-0.45l0-0 4.322-4.331c0.115-0.116 0.275-0.187 0.451-0.187s0.336 0.072 0.451 0.187v0l4.541 4.549c0.233-0.401 0.518-0.77 0.856-1.106 0.893-0.912 2.114-1.501 3.471-1.577l0.014-0.001c0.096-0.007 0.207-0.012 0.32-0.012 1.216 0 2.316 0.498 3.107 1.302l0.001 0.001c0.896 0.894 1.353 2.114 1.289 3.433-0.076 1.373-0.664 2.596-1.575 3.492l-0.001 0.001c-0.335 0.337-0.704 0.623-1.103 0.856l4.539 4.55c0.116 0.116 0.187 0.275 0.187 0.452s-0.072 0.336-0.187 0.452v0l-4.322 4.329c-0.116 0.115-0.275 0.186-0.451 0.186-0.274 0-0.507-0.172-0.599-0.413l-0.001-0.004c-0.22-0.593-0.549-1.099-0.968-1.516l-0-0c-1.489-1.49-3.781-1.615-5.109-0.288-1.329 1.332-1.199 3.628 0.286 5.12 0.436 0.434 0.945 0.762 1.513 0.969 0.248 0.091 0.421 0.325 0.421 0.599 0 0.177-0.073 0.338-0.19 0.454l-0 0-4.322 4.331c-0.115 0.116-0.275 0.187-0.451 0.187h-0zM11.395 24.707c0.177 0 0.337 0.073 0.453 0.189l0 0 4.73 4.736 3.229-3.235c-0.419-0.249-0.782-0.533-1.103-0.857l-0-0c-1.986-1.989-2.115-5.096-0.286-6.926 1.822-1.832 4.926-1.705 6.912 0.288 0.338 0.335 0.623 0.706 0.856 1.105l3.229-3.235-4.728-4.739c-0.116-0.115-0.187-0.275-0.187-0.451 0-0.049 0.005-0.096 0.016-0.141l-0.001 0.004c0.047-0.216 0.2-0.388 0.399-0.463l0.004-0.001c0.568-0.207 1.077-0.533 1.513-0.969 0.73-0.731 1.155-1.673 1.204-2.65 0.044-0.955-0.282-1.832-0.916-2.469-0.635-0.637-1.492-0.94-2.466-0.919-1.041 0.064-1.966 0.513-2.645 1.205l-0.001 0.001c-0.418 0.417-0.748 0.923-0.958 1.487l-0.009 0.029c-0.090 0.248-0.324 0.422-0.598 0.422-0.177 0-0.338-0.073-0.453-0.19l-0-0-4.73-4.736-3.229 3.235c0.399 0.233 0.768 0.52 1.103 0.856 1.986 1.99 2.115 5.096 0.286 6.926-1.826 1.83-4.928 1.705-6.914-0.286-0.324-0.322-0.607-0.685-0.841-1.080l-0.014-0.025-3.229 3.235 4.727 4.738c0.118 0.116 0.191 0.277 0.191 0.455 0 0.275-0.174 0.509-0.418 0.598l-0.004 0.001c-0.567 0.207-1.076 0.533-1.512 0.969-0.692 0.681-1.141 1.608-1.203 2.639l-0.001 0.011c-0.044 0.955 0.282 1.832 0.916 2.469 0.637 0.635 1.49 0.96 2.466 0.917 1.041-0.062 1.966-0.511 2.643-1.203l0.001-0.001c0.419-0.417 0.749-0.923 0.958-1.488l0.009-0.028c0.092-0.247 0.326-0.42 0.6-0.421h0z"></path>
</symbol>
<symbol id="svg-ic-snav-set-my-products" viewBox="0 0 29 32">
<title>ic-snav-set-my-products</title>
<path d="M14.609 0.879l-14.616 3.88v20.125l14.616 6.236 14.614-6.236v-20.125l-14.614-3.88zM13.912 29.22l-12.526-5.198v-17.416l12.526 3.357v19.257zM2.401 5.472l12.207-3.136 12.206 3.136-12.206 3.253-12.207-3.253zM27.832 24.022l-12.529 5.198v-19.257l12.529-3.357v17.416z"></path>
</symbol>
<symbol id="svg-ic-multiple-arrows" viewBox="0 0 73 32">
<title>ic-multiple-arrows</title>
<path d="M72.032 16.649l-11.2 12.209c-0.276 0.297-0.669 0.482-1.104 0.482-0.38 0-0.727-0.141-0.992-0.373l0.002 0.002c-0.303-0.264-0.494-0.651-0.494-1.082 0-0.376 0.145-0.718 0.382-0.973l11.202-12.211-11.203-12.017c-0.237-0.254-0.383-0.596-0.383-0.972 0-0.432 0.192-0.818 0.495-1.080l0.002-0.002c0.263-0.23 0.61-0.371 0.99-0.371 0.436 0 0.828 0.185 1.103 0.481l0.001 0.001 11.203 12.212c0.448 0.483 0.723 1.132 0.723 1.846 0 0.715-0.276 1.365-0.728 1.851l0.002-0.002zM31.741 28.858c-0.276 0.297-0.669 0.482-1.104 0.482-0.38 0-0.727-0.141-0.992-0.373l0.002 0.002c-0.303-0.264-0.494-0.651-0.494-1.082 0-0.376 0.145-0.718 0.382-0.973l11.202-12.211-11.203-12.017c-0.237-0.254-0.383-0.596-0.383-0.972 0-0.432 0.192-0.818 0.495-1.080l0.002-0.002c0.263-0.23 0.61-0.371 0.99-0.371 0.436 0 0.828 0.185 1.103 0.481l0.001 0.001 11.203 12.212c0.448 0.483 0.723 1.132 0.723 1.846 0 0.715-0.276 1.365-0.728 1.851l0.002-0.002-11.2 12.209zM2.65 28.858c-0.276 0.297-0.669 0.482-1.104 0.482-0.38 0-0.727-0.141-0.992-0.373l0.002 0.002c-0.303-0.264-0.494-0.651-0.494-1.082 0-0.376 0.145-0.718 0.382-0.973l11.202-12.211-11.203-12.017c-0.237-0.254-0.383-0.596-0.383-0.972 0-0.432 0.192-0.818 0.495-1.080l0.002-0.002c0.263-0.23 0.61-0.371 0.99-0.371 0.436 0 0.828 0.185 1.103 0.481l0.001 0.001 11.203 12.212c0.448 0.483 0.723 1.132 0.723 1.846 0 0.715-0.276 1.365-0.728 1.851l0.002-0.002-11.2 12.209z"></path>
</symbol>
<symbol id="svg-ic-table-arrow" viewBox="0 0 16 32">
<title>ic-table-arrow</title>
<path d="M0.515 0.41c-0.336 0.289-0.548 0.715-0.548 1.191 0 0.415 0.161 0.792 0.424 1.072l-0.001-0.001 12.4 13.222-12.4 13.437c-0.261 0.279-0.422 0.656-0.422 1.070 0 0.475 0.211 0.9 0.544 1.188l0.002 0.002c0.672 0.592 1.709 0.538 2.317-0.118l12.397-13.437c0.5-0.53 0.807-1.247 0.807-2.035 0-0.787-0.306-1.502-0.805-2.033l0.001 0.002-12.4-13.437c-0.306-0.326-0.74-0.53-1.222-0.53-0.42 0-0.803 0.155-1.097 0.41l0.002-0.002z"></path>
</symbol>
<symbol id="svg-header-home-icon" viewBox="0 0 30 32">
<title>header-home-icon</title>
<path d="M28.235 32h-7.529c-0.909 0-1.882-0.983-1.882-1.882v-11.294h-7.529v11.294c0 0.9-0.973 1.882-1.882 1.882h-7.529c-0.909 0-1.882-0.983-1.882-1.882v-16.941c0-0.493 0.894-1.8 1.282-2.112l11.4-8.533c0.646-0.517 1.476-0.83 2.378-0.83s1.732 0.313 2.386 0.836l-0.008-0.006 11.398 8.533c0.388 0.312 1.282 1.619 1.282 2.112v16.941c0 0.9-0.973 1.882-1.882 1.882zM11.661 17.020h6.793c0.909 0 2.251 0.904 2.251 1.803v11.294h7.529v-16.941l-11.806-9.419c-0.372-0.298-0.85-0.478-1.37-0.478s-0.998 0.18-1.375 0.482l0.004-0.003-11.806 9.419v16.941h7.529v-11.294c0-0.9 1.342-1.803 2.249-1.803z"></path>
</symbol>
<symbol id="svg-ic-list-view" viewBox="0 0 32 32">
<title>ic-list-view</title>
<path d="M0 32v-2.462h32v2.462h-32zM0 19.692h32v2.462h-32v-2.462zM0 9.846h32v2.462h-32v-2.462zM0 0h32v2.462h-32v-2.462z"></path>
</symbol>
<symbol id="svg-ic-tile-view" viewBox="0 0 32 32">
<title>ic-tile-view</title>
<path d="M22.857 32v-9.143h9.143v9.143h-9.143zM29.714 25.143h-4.571v4.571h4.571v-4.571zM22.857 11.429h9.143v9.143h-9.143v-9.143zM25.143 18.286h4.571v-4.571h-4.571v4.571zM22.857 0h9.143v9.143h-9.143v-9.143zM25.143 6.857h4.571v-4.571h-4.571v4.571zM11.429 22.857h9.143v9.143h-9.143v-9.143zM13.714 29.714h4.571v-4.571h-4.571v4.571zM11.429 11.429h9.143v9.143h-9.143v-9.143zM13.714 18.286h4.571v-4.571h-4.571v4.571zM11.429 0h9.143v9.143h-9.143v-9.143zM13.714 6.857h4.571v-4.571h-4.571v4.571zM0 22.857h9.143v9.143h-9.143v-9.143zM2.286 29.714h4.571v-4.571h-4.571v4.571zM0 11.429h9.143v9.143h-9.143v-9.143zM2.286 18.286h4.571v-4.571h-4.571v4.571zM0 0h9.143v9.143h-9.143v-9.143zM2.286 6.857h4.571v-4.571h-4.571v4.571z"></path>
</symbol>
<symbol id="svg-office365" viewBox="0 0 27 32">
<title>office365</title>
<path fill="#ef4c23" style="fill: var(--color1, #ef4c23)" d="M17.041 31.189c-0.101-0-0.199-0.019-0.288-0.053l0.006 0.002-15.338-5.676c-0.349-0.096-0.602-0.411-0.602-0.785v0-17.27c0-0 0-0.001 0-0.001 0-0.384 0.266-0.706 0.624-0.792l0.006-0.001 15.309-5.749c0.085-0.033 0.183-0.052 0.286-0.052 0.080 0 0.158 0.012 0.232 0.033l-0.006-0.001 8.557 2.466c0.342 0.101 0.588 0.413 0.588 0.782 0 0 0 0.001 0 0.001v-0 23.819c0 0.023 0 0.045 0 0.068-0.004 0.379-0.251 0.699-0.593 0.812l-0.006 0.002-8.557 2.367c-0.064 0.018-0.137 0.028-0.213 0.028-0.002 0-0.003 0-0.005 0h0zM16.227 25.869v-18.697l-8.535 2.040v13.416c-0 0.342-0.212 0.635-0.511 0.755l-0.005 0.002-2.334 0.913z"></path>
<path fill="#fff" style="fill: var(--color2, #fff)" d="M17.041 1.639l8.554 2.466v23.915l-8.554 2.367-15.4-5.698 15.4 2.124v-20.671l-10.17 2.43v14.058l-5.246 2.051v-17.27h0.040l15.377-5.772zM25.604 27.991v0zM17.041 0.023c-0.203 0.001-0.397 0.039-0.576 0.108l0.011-0.004-15.256 5.735c-0.697 0.194-1.201 0.823-1.201 1.57 0 0 0 0 0 0v-0 17.27c0 0 0 0 0 0 0 0.733 0.484 1.352 1.15 1.556l0.012 0.003 15.309 5.65c0.168 0.064 0.362 0.101 0.564 0.101 0.154 0 0.303-0.021 0.444-0.061l-0.011 0.003 8.554-2.367c0.696-0.209 1.195-0.845 1.195-1.596v-0q0-0.051 0-0.099v-23.787c-0-0.737-0.491-1.36-1.164-1.559l-0.012-0.003-8.563-2.478c-0.135-0.041-0.291-0.065-0.452-0.065h-0zM8.504 9.877l6.91-1.653v16.73l-7.52-1.057c0.373-0.301 0.61-0.758 0.61-1.27 0-0 0-0.001 0-0.001v0-12.77z"></path>
</symbol>
<symbol id="svg-ic-shopping-cart" viewBox="0 0 36 32">
<title>ic-shopping-cart</title>
<path d="M33.044 20.052c-0.307 1.876-1.916 3.291-3.856 3.291-0.002 0-0.004 0-0.006 0h-17.863c-0.001 0-0.002 0-0.003 0-1.94 0-3.55-1.414-3.855-3.268l-0.003-0.023-2.871-17.326h-3.125v-2.72h3.548c1.084 0 2 0.78 2.176 1.858l0.546 3.296h25.175c1.22 0.010 2.204 1.001 2.204 2.222 0 0.129-0.011 0.255-0.032 0.378l0.002-0.013-2.037 12.306zM8.181 7.879l1.943 11.726c0.096 0.58 0.594 1.017 1.194 1.017 0 0 0.001 0 0.001 0h17.863c0.596 0 1.095-0.427 1.191-1.015l1.945-11.728h-24.137zM13.419 24.059c2.158 0 3.915 1.767 3.915 3.938 0 0.002 0 0.005 0 0.007 0 2.165-1.751 3.922-3.914 3.931h-0.001c-2.164-0.008-3.915-1.764-3.915-3.929 0-0.003 0-0.006 0-0.009v0c0-0.003 0-0.006 0-0.009 0-2.165 1.751-3.921 3.914-3.929h0.001zM13.419 29.212c0.672 0 1.216-0.544 1.216-1.216s-0.544-1.216-1.216-1.216v0c-0.669 0.001-1.211 0.543-1.211 1.212 0 0.001 0 0.003 0 0.004v-0c0 0.672 0.542 1.216 1.211 1.216zM27.083 24.059c2.164 0.008 3.915 1.764 3.915 3.929 0 0.003 0 0.006 0 0.009v-0c0 0.003 0 0.006 0 0.009 0 2.165-1.751 3.921-3.914 3.929h-0.001c-2.164-0.009-3.915-1.765-3.915-3.931 0-0.003 0-0.005 0-0.008v0c0-2.171 1.756-3.938 3.915-3.938zM27.083 29.212c0.669-0.001 1.211-0.543 1.211-1.212 0-0.001 0-0.003 0-0.004v0c0-0.001 0-0.002 0-0.004 0-0.669-0.542-1.211-1.211-1.212h-0c-0.672 0-1.216 0.544-1.216 1.216s0.544 1.216 1.216 1.216v0z"></path>
</symbol>
<symbol id="svg-additional-service" viewBox="0 0 32 32">
<title>additional-service</title>
<path d="M26.522 14.418c-1.773 1.779-4.067 2.318-6.552 2.013-0.987-0.126-1.728-0.522-2.499 0.25l-9.051 9.051c-1.45 1.45-3.189 1.347-4.622-0.088-1.44-1.438-1.354-2.987 0.098-4.437l9.050-9.051c0.773-0.773 0.181-1.699 0.064-2.685-0.298-2.486 0.419-4.592 2.2-6.366 2.371-2.379 6.016-3.645 9.050-2.262 0.238 0.106 0.526 0.576 0.571 0.832 0.045 0.254-0.386 1.246-0.571 1.43l-3.394 3.394c-0.704 0.706-0.606 1.587 0 2.264 0.469 0.52 1.6 0.755 2.262 0l3.395-3.395c0.186-0.184 0.982-0.797 1.245-0.757 0.256 0.045 0.91 0.52 1.018 0.757 1.378 3.035 0.117 6.677-2.262 9.051zM27.285 6.848l-3.027 3.045c-1.261 1.261-3.539 1.094-4.525 0-1.179-1.314-1.317-3.208 0-4.526l3.394-3.394c-2.158-0.523-5.168 0.637-6.787 2.262-1.43 1.426-1.994 3.035-1.754 5.030 0.176 1.469 0.608 2.904-0.51 4.021l-9.050 9.051c-0.827 0.826-0.922 1.357-0.101 2.178 0.79 0.79 1.565 0.88 2.363 0.085l9.051-9.051c1.117-1.117 2.362-0.872 3.835-0.696 1.998 0.242 3.795-0.139 5.216-1.566 1.626-1.622 2.419-4.275 1.894-6.438zM21.6 20.8h1.6v4.8h4.8v1.6h-4.8v4.8h-1.6v-4.8h-4.8v-1.6h4.8v-4.8z"></path>
</symbol>
<symbol id="svg-billing" viewBox="0 0 32 32">
<title>billing</title>
<path d="M28.732 28.444h-25.467c-1.801 0-3.266-1.575-3.266-3.511v-17.867c0-1.936 1.465-3.511 3.266-3.511h25.467c1.803 0 3.269 1.575 3.269 3.511v17.868c0 1.936-1.467 3.509-3.269 3.509zM30.224 7.067c0-0.94-0.683-1.733-1.492-1.733h-25.467c-0.821 0-1.49 0.777-1.49 1.733v1.989h28.448v-1.989zM30.224 10.832h-28.448v14.101c0 0.942 0.683 1.735 1.49 1.735h25.467c0.809 0 1.492-0.793 1.492-1.733v-14.103zM10.667 21.333h5.333v1.778h-5.333v-1.778zM3.556 21.333h5.333v1.778h-5.333v-1.778z"></path>
</symbol>
<symbol id="svg-branches" viewBox="0 0 32 32">
<title>branches</title>
<path d="M19.458 23.372c2.646-3.471 6.535-9.145 6.535-12.591 0.002-0.064 0.002-0.139 0.002-0.215 0-5.174-4.194-9.369-9.369-9.369s-9.369 4.194-9.369 9.369c0 0.075 0.001 0.151 0.003 0.226l-0-0.011c0 3.446 3.889 9.12 6.523 12.591-2.917 0.172-10.092 0.812-10.092 3.028 0 2.449 8.468 3.372 12.812 3.372s13.058-0.923 13.058-3.372c0-2.215-7.151-2.855-10.105-3.028zM16.628 2.462c4.512 0.055 8.148 3.726 8.148 8.246 0 0.026-0 0.052-0 0.078l0-0.004c0 4.012-6.375 12.025-8.148 14.191-1.785-2.166-8.148-10.178-8.148-14.191-0-0.022-0-0.048-0-0.074 0-4.52 3.636-8.19 8.143-8.246l0.005-0zM16.505 28.542c-6.523 0-11.409-1.502-11.594-2.129 0.148-0.529 4.135-1.625 9.809-1.846 0.788 1.009 1.354 1.674 1.44 1.772l0.468 0.529 0.455-0.529c0.086-0.098 0.652-0.763 1.44-1.772 5.674 0.222 9.662 1.317 9.822 1.809-0.197 0.665-5.317 2.166-11.84 2.166zM22.535 10.782c-0.062-3.215-2.683-5.797-5.907-5.797-3.263 0-5.908 2.645-5.908 5.908s2.644 5.907 5.907 5.908h0c3.272-0.043 5.908-2.705 5.908-5.983 0-0.012-0-0.025-0-0.037v0.002zM11.938 10.782c0.048-2.554 2.129-4.606 4.69-4.606 2.59 0 4.69 2.1 4.69 4.69s-2.1 4.69-4.69 4.69c-0 0-0 0-0 0h0c-2.596-0.029-4.689-2.14-4.689-4.741 0-0.012 0-0.024 0-0.037v0.002z"></path>
</symbol>
<symbol id="svg-clouds" viewBox="0 0 32 32">
<title>clouds</title>
<path d="M22.154 25.846h-13.538c-0.093 0.005-0.201 0.008-0.31 0.008-3.232 0-5.852-2.62-5.852-5.852 0-0.109 0.003-0.217 0.009-0.325l-0.001 0.015c0.013-3.394 2.76-6.141 6.153-6.154h0.001c0.037-4.849 3.2-7.372 7.385-7.372 3.643 0 7.385 2.523 7.385 6.142 3.323 0.763 6.142 3.126 6.142 6.425-0.061 3.943-3.271 7.115-7.223 7.115-0.053 0-0.105-0.001-0.158-0.002l0.008 0zM16 7.385c-0.018-0-0.039-0-0.061-0-3.365 0-6.094 2.728-6.094 6.094 0 0.021 0 0.043 0 0.064l-0-0.003v1.231h-1.231c-2.657 0.149-4.774 2.266-4.922 4.909l-0.001 0.014c-0.002 0.057-0.004 0.123-0.004 0.19 0 2.616 2.121 4.737 4.737 4.737 0.067 0 0.133-0.001 0.199-0.004l-0.009 0h13.538c3.251-0.007 5.887-2.634 5.908-5.881v-0.002c0-0.027 0.001-0.059 0.001-0.091 0-2.672-2.047-4.867-4.658-5.102l-0.020-0.001h-1.231v-1.231c-0.592-2.83-3.066-4.924-6.030-4.924-0.044 0-0.087 0-0.131 0.001l0.006-0z"></path>
</symbol>
<symbol id="svg-cloud-services" viewBox="0 0 32 32">
<title>cloud-services</title>
<path d="M11.557 29.538c-1.624-0.010-2.937-1.328-2.937-2.954 0-0.811 0.327-1.546 0.857-2.080l6.461-6.461c0.603-0.576 0.907-1.398 0.825-2.228-0.032-0.24-0.050-0.518-0.050-0.801 0-3.543 2.872-6.415 6.415-6.415 0.968 0 1.886 0.214 2.709 0.598l-0.039-0.017c0.219 0.103 0.368 0.322 0.368 0.575 0 0.174-0.070 0.332-0.184 0.446l-3.458 3.458c-0.254 0.288-0.409 0.668-0.409 1.085 0 0.338 0.102 0.653 0.278 0.914l-0.004-0.006c0.266 0.255 0.63 0.382 0.997 0.345 0.069 0.014 0.149 0.023 0.23 0.023 0.305 0 0.583-0.116 0.792-0.307l-0.001 0.001 3.545-3.545c0.118-0.118 0.282-0.191 0.462-0.191 0.032 0 0.064 0.002 0.095 0.007l-0.004-0c0.209 0.037 0.384 0.175 0.468 0.369 0.364 0.781 0.577 1.695 0.577 2.659 0 1.773-0.719 3.379-1.881 4.541v0c-1.151 1.165-2.749 1.886-4.516 1.886-0.287 0-0.569-0.019-0.846-0.056l0.032 0.004c-0.086-0.010-0.186-0.015-0.287-0.015-0.765 0-1.454 0.322-1.94 0.839l-0.001 0.001-6.462 6.449c-0.526 0.539-1.26 0.874-2.072 0.874-0.007 0-0.015-0-0.022-0h0.001zM16.837 18.942l-6.462 6.462c-0.304 0.297-0.492 0.712-0.492 1.17 0 0.004 0 0.008 0 0.012v-0.001c-0.004 0.448 0.175 0.879 0.492 1.194 0.667 0.628 1.708 0.628 2.375 0l6.462-6.462c0.725-0.744 1.737-1.205 2.857-1.205 0.151 0 0.301 0.008 0.448 0.025l-0.018-0.002c0.193 0.026 0.416 0.041 0.643 0.041 1.42 0 2.704-0.581 3.627-1.517l0.001-0.001c0.937-0.933 1.517-2.223 1.517-3.649 0-0.439-0.055-0.865-0.158-1.272l0.008 0.036-2.831 2.831c-0.514 0.485-1.218 0.715-1.92 0.628-0.057 0.005-0.124 0.007-0.192 0.007-0.686 0-1.306-0.281-1.753-0.733l-0-0c-0.313-0.493-0.499-1.094-0.499-1.738 0-0.758 0.257-1.456 0.689-2.011l-0.006 0.007 2.745-2.745c-0.371-0.095-0.797-0.15-1.235-0.15-2.847 0-5.154 2.308-5.154 5.154 0 0.223 0.014 0.443 0.042 0.658l-0.003-0.026c0.014 0.127 0.023 0.275 0.023 0.424 0 1.121-0.461 2.135-1.203 2.861l-0.001 0.001zM22.671 6.178c-1.356-2.242-3.781-3.718-6.551-3.718-0.042 0-0.084 0-0.126 0.001l0.006-0c-4.295 0.124-7.77 3.471-8.097 7.701l-0.002 0.029c-3.149 0.798-5.442 3.607-5.442 6.951 0 0.066 0.001 0.131 0.003 0.197l-0-0.010c0 0.003 0 0.007 0 0.011 0 3.207 2.035 5.939 4.884 6.975l0.052 0.016-0.074-1.723c-1.975-0.983-3.317-2.97-3.36-5.274l-0-0.006c-0.001-0.048-0.002-0.104-0.002-0.161 0-2.775 2.037-5.075 4.697-5.485l0.031-0.004 0.64-0.074 0.025-0.689c0.004-3.709 2.954-6.727 6.636-6.843l0.011-0c0.101-0.007 0.219-0.010 0.338-0.010 1.749 0 3.309 0.806 4.33 2.068l0.008 0.010 1.994 0.037z"></path>
</symbol>
<symbol id="svg-cloud-types" viewBox="0 0 32 32">
<title>cloud-types</title>
<path d="M23.803 28.283h-12.197c-2.884-0.010-5.218-2.351-5.218-5.237 0-0.006 0-0.013 0-0.020v0.001c0-2.511 2.978-4.628 5.366-5.132 0.387-3.119 3.013-5.511 6.202-5.526h0.002c2.838 0.032 5.226 1.922 6.007 4.509l0.012 0.045c2.535 0.628 5.563 2.929 5.563 5.588 0 0.004 0 0.010 0 0.015 0 3.172-2.565 5.745-5.734 5.758h-0.001zM17.957 13.6c-0.002 0-0.004 0-0.006 0-2.71 0-4.916 2.153-5.003 4.841l-0 0.008-0.025 0.529-0.529 0.062c-2.018 0.222-4.775 1.945-4.775 3.988 0 0.004-0 0.009-0 0.014 0 2.207 1.783 3.998 3.986 4.011h12.198c2.491-0.015 4.505-2.037 4.505-4.53 0-0.004 0-0.008 0-0.012v0.001c0-2.203-2.794-4.074-4.948-4.455l-0.406-0.074-0.086-0.406c-0.511-2.281-2.512-3.963-4.909-3.975h-0.001zM4.923 17.231c-1.649-0.591-2.462-3.483-2.462-5.243 0-1.957 2.572-3.618 4.418-4.049 0.325-2.415 2.373-4.258 4.851-4.258 0.008 0 0.016 0 0.024 0h-0.001c3.938 0.037 4.308 2.831 5.477 3.705v2.462c-1.009-0.763-1.908-5.083-5.477-4.923-1.986 0.027-3.596 1.595-3.692 3.561l-0 0.009-0.025 0.529-0.529 0.062c-1.477 0.16-3.815 1.403-3.815 2.905 0 1.243 0.074 3.594 1.231 4.012h3.692v1.231h-3.692z"></path>
</symbol>
<symbol id="svg-commercial" viewBox="0 0 32 32">
<title>commercial</title>
<path d="M29.176 30.118v-28.235c0-0.52-1.363-1.882-1.882-1.882l-3.772-0.002c-0.52 0-1.875 1.365-1.875 1.884v28.235h-1.882v-20.706c0-0.52-1.363-1.882-1.882-1.882h-3.765c-0.52 0-1.882 1.363-1.882 1.882v20.706h-1.882v-15.059c0-0.52-1.363-1.882-1.882-1.882h-3.765c-0.52 0-1.882 1.363-1.882 1.882v15.059l-1.882 0.002v1.88h30.118v-1.882h-1.882zM23.529 1.882h3.765v28.235h-3.765v-28.235zM14.118 9.412h3.765v20.706h-3.765v-20.706zM4.706 15.059h3.765v15.059h-3.765v-15.059z"></path>
</symbol>
<symbol id="svg-commercial-settings" viewBox="0 0 32 32">
<title>commercial-settings</title>
<path d="M27.077 27.077v-22.154c-0.225-0.566-0.665-1.006-1.216-1.226l-0.015-0.005h-3.692c-0.566 0.225-1.006 0.665-1.226 1.216l-0.005 0.015v22.154h-1.231v-14.769c-0.225-0.566-0.665-1.006-1.216-1.226l-0.015-0.005h-3.692c-0.566 0.225-1.006 0.665-1.226 1.216l-0.005 0.015v14.769h-1.231v-8.615c-0.225-0.566-0.665-1.006-1.216-1.226l-0.015-0.005h-3.692c-0.566 0.225-1.006 0.665-1.226 1.216l-0.005 0.015v8.615h-2.462v1.231h25.846v-1.231h-2.462zM22.154 4.923h3.692v22.154h-3.692v-22.154zM14.769 12.308h3.692v14.769h-3.692v-14.769zM7.385 18.462h3.692v8.615h-3.692v-8.615z"></path>
</symbol>
<symbol id="svg-companies" viewBox="0 0 32 32">
<title>companies</title>
<path d="M30.757 29.514h-28.295l0.012-1.206h28.295l-0.012 1.206zM23.385 28.308h-1.231v-23.385h-16v23.385h-1.231v-24.615h18.462v24.615zM28.308 28.308h-1.231v-18.462h-3.692v-1.231h4.923v19.692z"></path>
</symbol>
<symbol id="svg-contracts" viewBox="0 0 32 32">
<title>contracts</title>
<path d="M25.846 25.772c-0.14 1.299-1.162 2.322-2.449 2.46l-0.012 0.001h-17.231c-1.275-0.053-2.308-1.023-2.46-2.264l-0.001-0.012v-16.308c0.15-1.269 1.178-2.255 2.454-2.338l0.008-0h11.077v-1.231h-11.077c-1.962 0.086-3.539 1.62-3.691 3.556l-0.001 0.013v16.308c0.16 1.933 1.74 3.449 3.687 3.508l0.006 0h17.231c1.979-0.143 3.549-1.713 3.692-3.679l0.001-0.013v-9.846h-1.231v9.846zM28.751 4.418c-0.488-0.468-1.152-0.757-1.883-0.757s-1.395 0.288-1.884 0.758l0.001-0.001-9.194 9.108c-0.074 0.077-0.13 0.172-0.159 0.278l-0.001 0.005-0.96 3.84c-0.014 0.049-0.023 0.105-0.023 0.163 0 0.168 0.070 0.32 0.182 0.428l0 0c0.111 0.107 0.261 0.172 0.427 0.172 0.001 0 0.003 0 0.004 0h-0c0.049 0.002 0.098-0.002 0.148-0.012l3.877-0.96c0.112-0.032 0.208-0.092 0.283-0.172l0-0 9.182-9.108c0.502-0.494 0.785-1.167 0.788-1.871 0-0.002 0-0.005 0-0.008 0-0.73-0.302-1.39-0.787-1.862l-0.001-0.001zM18.818 16.295l-2.708 0.665 0.677-2.683 7.655-7.606 2.043 2.018-7.668 7.606zM27.889 7.298l-0.542 0.529-2.031-2.018 0.529-0.529c0.266-0.251 0.626-0.406 1.022-0.406s0.756 0.155 1.022 0.407l-0.001-0.001c0.258 0.258 0.418 0.615 0.418 1.009s-0.16 0.751-0.418 1.009v0z"></path>
</symbol>
<symbol id="svg-csp-settings" viewBox="0 0 32 32">
<title>csp-settings</title>
<path d="M16.941 32v-15.059h15.059v15.059h-15.059zM30.118 18.824h-11.294v11.294h11.294v-11.294zM16.941 0h15.059v15.059h-15.059v-15.059zM18.824 13.176h11.294v-11.294h-11.294v11.294zM0 16.941h15.059v15.059h-15.059v-15.059zM1.882 30.118h11.294v-11.294h-11.294v11.294zM0 0h15.059v15.059h-15.059v-15.059zM1.882 13.176h11.294v-11.294h-11.294v11.294z"></path>
</symbol>
<symbol id="svg-customers" viewBox="0 0 32 32">
<title>customers</title>
<path d="M28.308 22.166h-2.4l-2.474-3.717-1.206 0.012 2.474 3.705h-6.252l2.548-3.705-1.206-0.012-2.474 3.717-2.449-0.037c-0.615 0.158-1.098 0.631-1.268 1.243v1.243c0.124 0.59 0.574 1.057 1.157 1.206h0.111l0.468 3.643c0.062 0.886 1.243 1.292 2.092 1.292h8.369c0.849 0 1.994-0.406 2.055-1.292l0.505-3.643c0.599-0.148 1.071-0.61 1.231-1.206v-1.243c-0.178-0.605-0.662-1.064-1.268-1.204l-0.012-0.002zM25.797 29.514h-8.369c-0.003 0-0.006 0-0.010 0-0.463 0-0.838-0.374-0.839-0.837v-0l-0.468-2.855h11.003l-0.468 2.855-0.849 0.837zM28.308 23.335c0.001-0 0.003-0 0.004-0 0.043 0 0.078 0.032 0.082 0.074l0 0v1.132c-0.004 0.042-0.039 0.074-0.082 0.074-0.001 0-0.003-0-0.004-0h-13.44c-0.040-0.003-0.071-0.034-0.074-0.074l-0-0v-1.095c0.003-0.040 0.034-0.071 0.074-0.074l0-0 13.44-0.037zM19.803 10.658c0.018-0.083 0.029-0.178 0.029-0.276 0-0.45-0.224-0.847-0.566-1.087l-0.004-0.003-0.443-0.111-0.025-0.455c-0.172-4.16-1.366-5.022-4.566-5.022s-4.382 0.862-4.566 5.022l-0.012 0.455-0.443 0.111c-0.439 0.305-0.652 0.843-0.542 1.366-0.049 0.546 0.258 1.063 0.763 1.28l0.443 0.012 0.135 0.431c0.339 2.055 2.103 3.603 4.228 3.603s3.889-1.548 4.224-3.578l0.003-0.025 0.135-0.431 0.443-0.012c0.505-0.217 0.812-0.734 0.763-1.28zM19.348 15.951c-0.473-0.025-0.913-0.078-1.343-0.157l0.063 0.010c-1.022 0.88-2.362 1.415-3.827 1.415-1.472 0-2.817-0.541-3.848-1.434l0.007 0.006c-4.209 1.058-6.437 3.225-6.609 6.462 1.231 0.517 6.129 1.551 6.129 1.551l0.049 1.317c-2.864-0.614-5.227-1.271-7.535-2.049l0.482 0.141-0.369-0.16v-0.406c0 1.649-1.305-5.575 7.138-7.938-0.283-0.465-0.536-1.001-0.733-1.565l-0.018-0.060c-0.891-0.418-1.498-1.307-1.502-2.338v-0c-0.015-0.105-0.023-0.226-0.023-0.349 0-0.855 0.407-1.615 1.038-2.096l0.006-0.005c0.025-0.406-0.529-5.822 5.772-5.822 4.665 0 5.588 2.572 5.785 5.822 0.752 0.576 1.141 1.509 1.022 2.449 0 1.007-0.586 1.92-1.502 2.338-0.199 0.574-0.455 1.126-0.763 1.649 1.057 0.345 2.089 0.759 3.089 1.243l-2.511-0.025z"></path>
</symbol>
<symbol id="svg-dashboard" viewBox="0 0 32 32">
<title>dashboard</title>
<path d="M16.615 20.309c-0.283 0.007-0.566 0.053-0.837 0.135l-2.966-5.557-1.083 0.564 2.991 5.606c-0.541 0.506-0.879 1.223-0.879 2.020 0 0.55 0.161 1.063 0.438 1.494l-0.007-0.011c0.502 0.778 1.365 1.286 2.346 1.286 0.368 0 0.72-0.071 1.041-0.201l-0.019 0.007c1.039-0.414 1.761-1.411 1.761-2.577 0-1.528-1.239-2.767-2.767-2.767-0.007 0-0.014 0-0.021 0h0.001zM16.615 24.626c-0.857 0-1.551-0.692-1.551-1.546 0-0.853 0.694-1.545 1.551-1.545s1.551 0.692 1.551 1.545c0 0.854-0.694 1.546-1.551 1.546zM16.615 6.154c-7.121-0.007-12.902 5.734-12.923 12.831 0 2.288 0.598 4.537 1.735 6.526 0.106 0.184 0.303 0.306 0.527 0.306 0.114 0 0.221-0.032 0.312-0.087l-0.003 0.002 3.138-1.792-0.615-1.055-2.597 1.484c-0.71-1.358-1.167-2.951-1.266-4.641l-0.002-0.032h2.462v-1.227h-2.462c0.099-1.71 0.561-3.292 1.31-4.698l-0.030 0.061 2.105 1.166 0.615-1.055-1.945-1.399c0.75-1.247 1.747-2.272 2.93-3.032l0.036-0.022 1.551 1.828 1.022-0.847-1.391-1.742c1.419-0.724 3.080-1.193 4.839-1.299l0.035-0.002v2.454h1.231v-2.454c1.756 0.11 3.379 0.578 4.83 1.333l-0.067-0.032-1.317 2.011 1.058 0.614 1.366-1.975c1.336 0.86 2.442 1.959 3.285 3.246l0.026 0.042-2.105 1.312 0.615 1.056 2.142-1.079c0.707 1.307 1.157 2.849 1.242 4.487l0.001 0.026h-2.462v1.227h2.462c-0.101 1.722-0.558 3.316-1.298 4.738l0.031-0.065-2.597-1.484-0.615 1.055 3.138 1.791c0.084 0.054 0.187 0.086 0.298 0.086 0.004 0 0.007-0 0.011-0h-0.001c0.225-0.001 0.421-0.123 0.528-0.305l0.002-0.003c1.091-1.873 1.735-4.123 1.735-6.523v-0c-0.021-7.098-5.802-12.838-12.923-12.832z"></path>
</symbol>
<symbol id="svg-datacenters" viewBox="0 0 32 32">
<title>datacenters</title>
<path d="M25.846 23.385h-19.692c-0.026 0.001-0.057 0.001-0.088 0.001-1.991 0-3.605-1.614-3.605-3.605 0-0.031 0-0.062 0.001-0.093l-0 0.005v-2.462c-0.001-0.026-0.001-0.057-0.001-0.088 0-1.991 1.614-3.605 3.605-3.605 0.031 0 0.062 0 0.093 0.001l-0.005-0h19.692c0.026-0.001 0.057-0.001 0.088-0.001 1.991 0 3.605 1.614 3.605 3.605 0 0.031-0 0.062-0.001 0.093l0-0.005v2.462c0.001 0.026 0.001 0.057 0.001 0.088 0 1.991-1.614 3.605-3.605 3.605-0.031 0-0.062-0-0.093-0.001l0.005 0zM6.154 14.769c-1.345 0.035-2.426 1.117-2.461 2.458l-0 0.003v2.462c0.035 1.345 1.117 2.426 2.458 2.461l0.003 0h19.692c1.345-0.035 2.426-1.117 2.461-2.458l0-0.003v-2.462c-0.035-1.345-1.117-2.426-2.458-2.461l-0.003-0h-19.692zM14.769 19.692h-8.615v-1.231h8.615v1.231zM14.769 8.615h-8.615v-1.231h8.615v1.231zM16 28.308h-1.231v-4.923h1.231v4.923zM29.538 29.538l-27.077-0.012v-1.218h27.077v1.231zM25.846 12.308h-19.692c-0.026 0.001-0.057 0.001-0.088 0.001-1.991 0-3.605-1.614-3.605-3.605 0-0.031 0-0.062 0.001-0.093l-0 0.005v-2.462c-0.001-0.026-0.001-0.057-0.001-0.088 0-1.991 1.614-3.605 3.605-3.605 0.031 0 0.062 0 0.093 0.001l-0.005-0h19.692c0.026-0.001 0.057-0.001 0.088-0.001 1.991 0 3.605 1.614 3.605 3.605 0 0.031-0 0.062-0.001 0.093l0-0.005v2.462c0.001 0.026 0.001 0.057 0.001 0.088 0 1.991-1.614 3.605-3.605 3.605-0.031 0-0.062-0-0.093-0.001l0.005 0zM6.154 3.692c-1.345 0.035-2.426 1.117-2.461 2.458l-0 0.003v2.462c0.035 1.345 1.117 2.426 2.458 2.461l0.003 0h19.692c1.345-0.035 2.426-1.117 2.461-2.458l0-0.003v-2.462c-0.035-1.345-1.117-2.426-2.458-2.461l-0.003-0h-19.692z"></path>
</symbol>
<symbol id="svg-fabric" viewBox="0 0 32 32">
<title>fabric</title>
<path d="M29.538 11.077l-8.615 3.692v-3.692l-9.846 4.923h-3.692v-12.308h-4.923v25.846h27.077v-18.462zM28.308 16.492v11.815h-24.615v-23.385h2.462v12.308h4.923l8.615-3.692v3.692l8.615-3.692v2.954zM14.782 20.948l-1.231-0.037v3.692l1.231 0.025v-3.68zM18.474 20.948l-1.231-0.037v3.692l1.231 0.025v-3.68zM22.166 20.948l-1.231-0.037v3.692l1.231 0.025v-3.68zM25.858 20.948l-1.231-0.037v3.692l1.231 0.025v-3.68zM11.089 20.948l-1.231-0.037v3.692l1.231 0.025v-3.68zM7.397 20.948l-1.231-0.037v3.692l1.231 0.025v-3.68z"></path>
</symbol>
<symbol id="svg-hardware-profiles" viewBox="0 0 32 32">
<title>hardware-profiles</title>
<path d="M9.846 22.154h12.308v-12.308h-12.308v12.308zM20.923 11.077v9.846h-9.846v-9.846h9.846zM29.538 11.077v-1.231h-2.462v-4.923h-4.923v-2.462h-1.231v2.462h-2.462v-2.462h-1.231v2.462h-2.462v-2.462h-1.231v2.462h-2.462v-2.462h-1.231v2.462h-4.923v4.923h-2.462v1.231h2.462v2.462h-2.462v1.231h2.462v2.462h-2.462v1.231h2.462v2.462h-2.462v1.231h2.462v4.923h4.923v2.462h1.231v-2.462h2.462v2.462h1.231v-2.462h2.462v2.462h1.231v-2.462h2.462v2.462h1.231v-2.462h4.923v-4.923h2.462v-1.231h-2.462v-2.462h2.462v-1.231h-2.462v-2.462h2.462v-1.231h-2.462v-2.462h2.462zM6.154 25.846v-19.692h19.692v19.692h-19.692z"></path>
</symbol>
<symbol id="svg-hardware-templates" viewBox="0 0 32 32">
<title>hardware-templates</title>
<path d="M32 23.111v1.778h-3.556v3.556h-3.556v3.556h-1.778v-3.556h-3.556v3.556h-1.778v-3.556h-3.556v3.556h-1.778v-3.556h-3.556v3.556h-1.778v-3.556h-3.556v-3.556h-3.556v-1.778h3.556v-3.556h-3.556v-1.778h3.556v-3.556h-3.556v-1.778h3.556v-3.556h-3.556v-1.778h3.556v-3.556h3.556v-3.556h1.778v3.556h3.556v-3.556h1.778v3.556h3.556v-3.556h1.778v3.556h3.556v-3.556h1.778v3.556h3.556v3.556h3.556v1.778h-3.556v3.556h3.556v1.778h-3.556v3.556h3.556v1.778h-3.556v3.556h3.556zM26.667 5.333h-21.333v21.333h21.333v-21.333zM23.111 23.111h-14.222v-14.222h14.222v14.222zM21.333 10.667h-10.667v10.667h10.667v-10.667z"></path>
</symbol>
<symbol id="svg-ic-billing" viewBox="0 0 32 32">
<title>ic-billing</title>
<path d="M28.012 27.864l-24.744-0.001c-1.707 0-3.097-1.477-3.097-3.293v-17.153c0-1.815 1.389-3.292 3.097-3.292h24.744c1.708 0 3.098 1.477 3.098 3.292v17.154c0 1.816-1.389 3.293-3.098 3.293zM29.54 7.417c0-0.943-0.7-1.74-1.528-1.74h-24.744c-0.841 0-1.527 0.781-1.527 1.74v1.988h27.799v-1.988zM29.54 10.956h-27.799v13.613c0 0.96 0.685 1.741 1.527 1.741l24.744 0.001c0.828 0 1.528-0.797 1.528-1.741v-13.614zM10.934 22.041h5.114v1.551h-5.114v-1.551zM3.708 22.041h5.114v1.551h-5.114v-1.551z"></path>
</symbol>
<symbol id="svg-ic-burger" viewBox="0 0 32 32">
<title>ic-burger</title>
<path d="M0 28v-2.667h32v2.667h-32zM0 14.667h32v2.667h-32v-2.667zM0 4h32v2.667h-32v-2.667z"></path>
</symbol>
<symbol id="svg-ic-dashboard" viewBox="0 0 32 32">
<title>ic-dashboard</title>
<path d="M16.428 4.070c-8.529 0-15.467 6.953-15.467 15.5 0 2.725 0.718 5.406 2.076 7.751 0.175 0.305 0.534 0.453 0.875 0.369l9.431-2.429c0.535 1.197 1.714 2.016 3.085 2.020h0c1.371-0.003 2.551-0.823 3.077-1.999l0.009-0.021 9.431 2.429c0.059 0.016 0.126 0.025 0.196 0.025 0.289 0 0.542-0.157 0.679-0.39l0.002-0.004c1.304-2.222 2.075-4.893 2.075-7.745 0-0.002 0-0.005 0-0.007v0c0-8.547-6.939-15.5-15.467-15.5zM16.428 25.705c-0.98-0.024-1.765-0.824-1.765-1.808s0.785-1.784 1.763-1.808l0.002-0c0.999 0 1.808 0.809 1.808 1.808s-0.809 1.808-1.808 1.808v0zM28.746 26.011l-8.96-2.307c-0.101-1.774-1.561-3.191-3.358-3.191-0.338 0-0.658 0.065-0.966 0.159l-3.52-6.663-1.39 0.738 3.547 6.712c-0.595 0.572-0.979 1.36-1.028 2.236l-0 0.009-8.959 2.307c-0.913-1.746-1.417-3.677-1.53-5.653h2.62v-1.576h-2.627c0.114-2.014 0.641-3.88 1.497-5.55l-0.036 0.078 2.278 1.317 0.787-1.365-2.281-1.319c1.063-1.606 2.396-2.942 3.948-3.976l0.051-0.032 1.317 2.286 1.363-0.789-1.316-2.282c1.588-0.822 3.45-1.35 5.424-1.462l0.036-0.002v2.633h1.573v-2.633c1.956 0.11 3.802 0.622 5.461 1.464l-1.315 2.282 1.363 0.789 1.317-2.286c1.602 1.067 2.935 2.403 3.967 3.957l0.032 0.052-2.281 1.319 0.787 1.365 2.278-1.317c0.82 1.592 1.347 3.458 1.459 5.436l0.002 0.036h-2.628v1.576h2.621c-0.113 1.976-0.618 3.907-1.53 5.653z"></path>
</symbol>
<symbol id="svg-ic-deployment" viewBox="0 0 32 32">
<title>ic-deployment</title>
<path d="M31.397 10.772c-0.014 0.055-0.032 0.103-0.054 0.148l0.002-0.005c-0.453 1.64-1.278 3.116-2.457 4.294-1.314 1.312-2.887 2.595-4.562 3.853 0.093 0.382 0.2 0.766 0.309 1.15 0.335 1.191 0.683 2.423 0.613 3.639-0.357 6.179-6.317 6.904-9.521 7.294-0.026 0.003-0.057 0.005-0.087 0.005-0.206 0-0.392-0.081-0.53-0.213l0 0c-0.15-0.145-0.243-0.347-0.243-0.571 0-0.015 0-0.030 0.001-0.045l-0 0.002 0.327-5.908-0.957-0.992-0.512 1.777c-0.121 0.421-0.455 0.743-0.874 0.845l-0.008 0.002c-0.575 0.147-1.314-0.076-1.754-0.532l-3.963-4.024c-0.46-0.477-0.664-1.251-0.489-1.846 0.129-0.444 0.449-0.753 0.878-0.849l1.749-0.536-0.892-0.925-5.807 0.218c-0.013 0.001-0.028 0.001-0.044 0.001-0.222 0-0.42-0.1-0.553-0.257l-0.001-0.001c-0.124-0.139-0.199-0.324-0.199-0.526 0-0.038 0.003-0.075 0.008-0.111l-0 0.004c0.445-3.252 1.271-9.306 7.347-9.548 1.183-0.047 2.398 0.328 3.561 0.694 0.375 0.117 0.75 0.235 1.123 0.337 1.268-1.681 2.559-3.258 3.872-4.569 3.054-3.053 7.825-3.657 12.46-1.587 0.023 0.008 0.043 0.019 0.065 0.028 0.011 0.005 0.020 0.010 0.029 0.015l-0.001-0.001h0.002l0.001 0.001h0.001l0.001 0.001c0.177 0.089 0.317 0.232 0.4 0.406l0.002 0.005c0.152 0.364 0.288 0.732 0.41 1.098 0.806 2.454 0.933 4.984 0.346 7.227zM23.713 23.759c0.056-0.95-0.241-2.002-0.554-3.116-0.056-0.196-0.113-0.395-0.166-0.596-0.984 0.714-1.987 1.419-2.979 2.118-1.646 1.139-2.715 1.91-3.775 2.692l0.493-0.347-0.275 4.96c4.441-0.641 7.036-1.89 7.256-5.71zM8.141 20.238c0.021 0.061 0.049 0.119 0.078 0.151l3.962 4.023c0.041 0.037 0.089 0.067 0.143 0.086l0.003 0.001 0.68-2.355-2.525-2.62-2.341 0.714zM12.232 9.306c-1.029-0.323-2.005-0.629-2.898-0.629-0 0-0 0-0.001 0-0.053 0-0.105 0.001-0.157 0.003l0.007-0c-3.755 0.151-5.032 2.769-5.748 7.275l4.877-0.184c0.765-1.031 1.556-2.15 2.366-3.296 0.705-0.996 1.416-2.003 2.137-2.99-0.596-0.167-0.791-0.228-0.985-0.291l0.401 0.111zM18.758 4.695c-1.32 1.318-2.634 2.94-3.93 4.672-0.024 0.050-0.050 0.093-0.079 0.133l0.002-0.003-5.035 6.995 6.337 6.578 6.966-4.992c0.038-0.029 0.082-0.054 0.129-0.075l0.004-0.002c1.725-1.286 3.341-2.591 4.661-3.908 0.914-0.914 1.574-2.046 1.969-3.311l-7.748-8.042c-1.285 0.395-2.386 1.070-3.274 1.956l0-0zM29.511 3.803c-0.082-0.243-0.139-0.394-0.199-0.544l0.030 0.087c-1.85-0.786-3.742-1.11-5.489-0.952l6.304 6.543c0.172-1.629-0.036-3.39-0.647-5.134zM19.471 18.008h-0.046c-1.279-0.012-2.43-0.549-3.249-1.407l-0.002-0.002c-0.818-0.846-1.322-2-1.322-3.271 0-0.023 0-0.046 0.001-0.068l-0 0.003c0.006-1.294 0.534-2.463 1.383-3.31l0-0c0.832-0.831 1.981-1.345 3.25-1.345 0.010 0 0.019 0 0.029 0h-0.001c1.279 0.011 2.431 0.549 3.25 1.406l0.002 0.002c1.784 1.851 1.756 4.833-0.062 6.648-0.823 0.831-1.965 1.345-3.226 1.345-0.002 0-0.004 0-0.006 0h0zM21.668 11.111c-0.548-0.573-1.316-0.932-2.167-0.939h-0.031c-0.811 0-1.576 0.318-2.156 0.897-0.567 0.565-0.919 1.345-0.924 2.207v0.001c-0 0.012-0 0.025-0 0.039 0 0.85 0.337 1.621 0.884 2.187l-0.001-0.001c0.555 0.579 1.335 0.939 2.199 0.939 0.843 0 1.605-0.342 2.156-0.896l0-0c0.566-0.565 0.918-1.345 0.923-2.207v-0.001c0-0.012 0-0.026 0-0.040 0-0.85-0.336-1.621-0.883-2.188l0.001 0.001zM6.986 23.285c-0.317 0.093-0.617 0.256-0.867 0.51-0.785 0.8-1.705 4.631-1.705 4.631s3.763-0.937 4.548-1.736c0.249-0.254 0.411-0.561 0.502-0.883 0.060 0.24 0.094 0.515 0.094 0.798 0 0.934-0.372 1.78-0.975 2.4l0.001-0.001c-1.309 1.332-7.581 2.894-7.581 2.894s1.535-6.386 2.843-7.718c0.599-0.612 1.434-0.991 2.357-0.991 0.279 0 0.549 0.035 0.807 0.1l-0.023-0.005z"></path>
</symbol>
<symbol id="svg-ic-history" viewBox="0 0 32 32">
<title>ic-history</title>
<path d="M16.601 31.797c-8.491 0-15.401-6.91-15.401-15.401 0-8.492 6.91-15.402 15.401-15.402 8.492 0 15.402 6.91 15.402 15.402 0 8.491-6.91 15.401-15.402 15.401zM16.601 3.478c-7.122 0-12.918 5.794-12.918 12.918 0 7.122 5.796 12.918 12.918 12.918s12.918-5.796 12.918-12.918c0-7.124-5.796-12.918-12.918-12.918zM15.36 17.060v-9.159h2.482v7.831l5.111 3.407-1.377 2.066-6.217-4.145z"></path>
</symbol>
<symbol id="svg-ic-logs" viewBox="0 0 38 32">
<title>ic-logs</title>
<path d="M36.837 18.033l-8.951 10.129-1.812-1.66 8.86-10.026-8.86-10.027 1.812-1.659 8.953 10.13c0.366 0.412 0.59 0.958 0.59 1.556s-0.224 1.145-0.593 1.559l0.002-0.002zM15.812 31.499l4.265-30.398 2.412 0.351-4.265 30.399-2.412-0.352zM10.415 28.162l-8.953-10.13c-0.366-0.412-0.59-0.958-0.59-1.556s0.224-1.145 0.593-1.559l-0.002 0.002 8.951-10.129 1.812 1.659-8.86 10.027 8.86 10.026-1.812 1.66z"></path>
</symbol>
<symbol id="svg-ic-my-licenses" viewBox="0 0 32 32">
<title>ic-my-licenses</title>
<path d="M22.095 20.762v11.238l-6.094-4.891-6.097 4.891v-11.285c-2.455-1.819-4.594-5.28-4.594-8.562 0-5.501 5.189-10.691 10.691-10.691 5.499 0 10.671 4.853 10.671 10.354 0 3.282-2.123 7.127-4.578 8.946zM11.429 28.952l4.571-4.073 4.571 4.073v-7.285c-1.329 0.655-2.99 1.111-4.568 1.111-1.58 0-3.246-0.503-4.574-1.16v7.334zM16.009 3.026c-4.661 0-9.175 4.512-9.175 9.172s4.506 9.166 9.167 9.166c4.658 0 9.123-4.84 9.123-9.499s-4.457-8.838-9.115-8.838zM16.002 18.366c-3.587 0-6.075-2.584-6.075-6.168 0-3.586 2.488-6.097 6.075-6.097 3.584 0 6.059 2.51 6.059 6.095 0 3.584-2.475 6.17-6.059 6.17zM16.002 7.566c-2.746 0-4.599 1.888-4.599 4.632s1.853 4.645 4.599 4.645c2.743 0 4.549-1.9 4.549-4.645s-1.806-4.632-4.549-4.632z"></path>
</symbol>
<symbol id="svg-ic-ons-snav-company" viewBox="0 0 32 32">
<title>ic-ons-snav-company</title>
<path d="M30.475 28.952h1.525l-0.012 1.496h-1.513v0.027h-1.522v-0.027h-4.571v0.027h-1.525v-0.027h-18.284v0.027h-1.524v-0.027h-3.070l0.021-1.496h3.049v-27.429h21.333v6.095h6.094v21.333zM22.856 3.048h-18.284v25.905h18.284v-25.905zM24.381 9.143v19.81h4.571v-19.81h-4.571z"></path>
</symbol>
<symbol id="svg-ic-ons-snav-customers" viewBox="0 0 32 32">
<title>ic-ons-snav-customers</title>
<path d="M29.3 25.3h0.001l-0.545 5.281c-0.064 0.968-1.305 1.407-2.224 1.407h-9.064c-0.919 0-2.203-0.439-2.265-1.407l-0.504-5.281h-0.124c-0.489 0-1.261-0.813-1.261-1.303v-1.343c0-0.489 0.897-1.345 1.387-1.345l2.652 0.041 2.672-4.027 1.307 0.009-2.759 4.017h6.773l-2.676-4.017 1.307-0.009 2.671 4.027h2.612c0.488 0 1.387 0.815 1.387 1.304v1.343c0 0.489-0.857 1.303-1.345 1.303zM16.543 29.737c0.035 0.541 0.433 0.909 0.925 0.909h9.064l0.925-0.909 0.5-4.437h-11.915l0.5 4.437zM29.345 22.696c-0.001-0.048-0.039-0.086-0.087-0.087h-0l-14.559 0.043c0 0 0 0 0 0-0.047 0-0.086 0.038-0.087 0.085v1.177c0 0.047 0.040 0.085 0.087 0.085h14.559c0 0 0 0 0 0 0.047 0 0.086-0.038 0.087-0.085v-1.219zM20.887 14.613s-0.955-0.053-1.4-0.167c-1.18 1.497-2.692 1.535-4.148 1.535-1.46 0-2.977-0.043-4.159-1.548-4.556 1.152-6.971 3.5-7.151 7.008 1.329 0.556 6.632 1.681 6.632 1.681l0.060 1.42s-6.087-1.352-7.647-2.064l-0.389-0.179v-0.428c0 1.781-1.417-6.051 7.725-8.6-0.297-0.5-0.57-1.080-0.788-1.687l-0.022-0.072c-0.865-0.296-1.529-1.295-1.625-2.544-0.075-1.169 0.373-2.197 1.107-2.656 0.027-0.437-0.569-6.301 6.257-6.301 5.053 0 6.049 2.788 6.257 6.301 0.735 0.459 1.183 1.488 1.107 2.663-0.095 1.244-0.759 2.241-1.625 2.537-0.242 0.684-0.518 1.269-0.845 1.821l0.026-0.047c1.267 0.356 3.348 1.351 3.348 1.351l-2.72-0.024zM20.551 10.268c0.34-0.005 0.76-0.58 0.821-1.387 0.056-0.847-0.308-1.413-0.58-1.48l-0.485-0.12-0.021-0.499c-0.196-4.507-1.489-5.437-4.947-5.437-3.456 0-4.751 0.931-4.945 5.437l-0.023 0.499-0.484 0.12c-0.272 0.067-0.637 0.633-0.581 1.473 0.061 0.813 0.483 1.388 0.821 1.393l0.488 0.011 0.139 0.465c0.901 3.017 3.039 3.904 4.585 3.904 1.545 0 3.684-0.887 4.585-3.904l0.141-0.467 0.485-0.009z"></path>
</symbol>
<symbol id="svg-ic-operations" viewBox="0 0 32 32">
<title>ic-operations</title>
<path d="M29.467 20.3l-2.114 0.217c-0.134 0.37-0.256 0.657-0.388 0.938l0.029-0.068 1.34 1.644c0.913 1.12 0.832 2.735-0.191 3.756l-1.328 1.326c-0.506 0.511-1.208 0.827-1.983 0.827-0.675 0-1.294-0.24-1.777-0.639l0.005 0.004-1.648-1.34c-0.289 0.133-0.578 0.254-0.87 0.359l-0.215 2.113c-0.145 1.422-1.336 2.522-2.784 2.522-0.002 0-0.004 0-0.007 0h-1.875c-0.002 0-0.004 0-0.006 0-1.448 0-2.639-1.1-2.784-2.51l-0.001-0.012-0.218-2.114c-0.372-0.136-0.659-0.257-0.939-0.389l0.071 0.030-1.646 1.342c-0.479 0.395-1.098 0.634-1.773 0.634-0.776 0-1.478-0.316-1.984-0.826l-1.327-1.327c-0.51-0.507-0.825-1.208-0.825-1.983 0-0.675 0.239-1.295 0.638-1.778l-0.004 0.005 1.34-1.648c-0.104-0.212-0.225-0.499-0.334-0.792l-0.025-0.077-2.112-0.215c-1.422-0.145-2.522-1.336-2.522-2.784 0-0.003 0-0.005 0-0.008v0-1.876c0-1.445 1.084-2.645 2.522-2.791l2.113-0.218c0.11-0.298 0.229-0.587 0.358-0.868l-1.342-1.647c-0.394-0.478-0.634-1.098-0.634-1.772 0-0.775 0.316-1.477 0.825-1.984l1.327-1.327c0.507-0.509 1.208-0.824 1.983-0.824 0.675 0 1.294 0.239 1.778 0.637l-0.005-0.004 1.649 1.34c0.287-0.133 0.576-0.254 0.868-0.361l0.215-2.111c0.145-1.422 1.336-2.522 2.784-2.522 0.003 0 0.005 0 0.008 0h1.877c1.445 0 2.645 1.084 2.791 2.521l0.218 2.114c0.297 0.11 0.587 0.229 0.869 0.359l1.646-1.342c0.478-0.395 1.098-0.635 1.773-0.635 0.776 0 1.478 0.316 1.984 0.826l1.326 1.327c1.022 1.022 1.103 2.635 0.193 3.755l-1.344 1.649c0.135 0.289 0.256 0.578 0.362 0.869l2.112 0.215c1.421 0.146 2.521 1.336 2.521 2.784 0 0.003 0 0.005 0 0.008v-0 1.877c0 1.445-1.083 2.645-2.521 2.791zM29.522 15.632c0-0 0-0.001 0-0.002 0-0.176-0.134-0.321-0.305-0.338l-0.001-0-3.749-0.382-0.224-0.811c-0.21-0.727-0.479-1.359-0.813-1.95l0.023 0.044-0.401-0.729 2.372-2.913c0.048-0.059 0.077-0.135 0.077-0.217 0-0.094-0.038-0.18-0.099-0.242l-1.327-1.326c-0.061-0.061-0.146-0.099-0.24-0.099-0.081 0-0.156 0.029-0.215 0.076l0.001-0-2.923 2.38-0.732-0.414c-0.546-0.311-1.179-0.58-1.843-0.774l-0.063-0.016-0.798-0.231-0.385-3.737c-0.017-0.173-0.162-0.308-0.338-0.308-0 0-0 0-0 0h-1.877c-0 0-0 0-0.001 0-0.176 0-0.321 0.134-0.339 0.305l-0 0.001-0.38 3.749-0.812 0.225c-0.726 0.208-1.358 0.476-1.948 0.811l0.044-0.023-0.729 0.402-2.914-2.372c-0.059-0.048-0.134-0.077-0.216-0.077-0.094 0-0.179 0.038-0.241 0.099l-1.328 1.327c-0.062 0.062-0.1 0.147-0.1 0.241 0 0.082 0.029 0.158 0.078 0.217l-0-0.001 2.382 2.921-0.414 0.734c-0.312 0.546-0.582 1.178-0.776 1.843l-0.016 0.063-0.231 0.798-3.735 0.384c-0.173 0.018-0.308 0.163-0.308 0.339 0 0 0 0 0 0v-0 1.876c0 0.176 0.132 0.322 0.306 0.34l3.749 0.382 0.225 0.811c0.177 0.64 0.443 1.28 0.788 1.903l0.402 0.729-2.37 2.918c-0.048 0.058-0.077 0.134-0.077 0.216 0 0.093 0.037 0.178 0.098 0.239l1.328 1.327c0.062 0.062 0.147 0.1 0.241 0.1 0.082 0 0.157-0.029 0.216-0.078l-0.001 0 2.921-2.382 0.732 0.415c0.572 0.324 1.214 0.59 1.906 0.791l0.796 0.231 0.384 3.735c0.017 0.174 0.162 0.309 0.339 0.309 0 0 0 0 0 0h1.876c0 0 0 0 0 0 0.176 0 0.321-0.134 0.338-0.305l0-0.001 0.382-3.75 0.811-0.225c0.728-0.209 1.361-0.477 1.952-0.811l-0.045 0.023 0.727-0.4 2.914 2.369c0.058 0.049 0.133 0.078 0.216 0.078 0.093 0 0.177-0.038 0.239-0.099v0l1.329-1.328c0.123-0.124 0.134-0.32 0.023-0.457l-2.382-2.919 0.415-0.734c0.325-0.575 0.59-1.215 0.789-1.905l0.231-0.799 3.739-0.384c0.173-0.017 0.306-0.162 0.306-0.338 0-0 0-0 0-0v0-1.877zM16.598 22.519c-3.285-0.003-5.947-2.666-5.951-5.95v-0c0.004-3.285 2.666-5.947 5.95-5.951h0c3.285 0.004 5.947 2.666 5.951 5.95v0c-0.003 3.285-2.666 5.947-5.95 5.951h-0zM16.598 13.083c-1.924 0.003-3.483 1.562-3.486 3.485v0c0.002 1.924 1.561 3.483 3.485 3.486h0c1.924-0.002 3.484-1.561 3.487-3.485v-0c-0.003-1.924-1.562-3.483-3.487-3.486h-0z"></path>
</symbol>
<symbol id="svg-ic-organization" viewBox="0 0 38 32">
<title>ic-organization</title>
<path d="M35.85 21.388h-2.187v-4.85c-0.003-0.514-0.42-0.929-0.934-0.929-0.001 0-0.003 0-0.004 0h-12.191v-3.922h2.188c1.206 0 2.188-0.972 2.188-2.166v-6.192c0-1.195-0.982-2.167-2.188-2.167h-6.252c-1.206 0-2.187 0.972-2.187 2.167v6.192c0 1.194 0.981 2.166 2.187 2.166h2.188v3.922h-12.191c-0.001 0-0.002 0-0.004 0-0.514 0-0.931 0.416-0.933 0.929v4.851h-2.188c-1.206 0-2.188 0.972-2.188 2.166v6.193c0 1.194 0.982 2.166 2.188 2.166h6.251c1.206 0 2.188-0.972 2.188-2.166v-6.193c0-1.194-0.982-2.166-2.188-2.166h-2.188v-3.922h11.253v3.922h-2.188c-1.206 0-2.187 0.972-2.187 2.166v6.193c0 1.194 0.981 2.166 2.187 2.166h6.252c1.206 0 2.188-0.972 2.188-2.166v-6.193c0-1.194-0.982-2.166-2.188-2.166h-2.188v-3.922h11.253v3.922h-2.188c-1.206 0-2.188 0.972-2.188 2.166v6.193c0 1.194 0.982 2.166 2.188 2.166h6.251c1.207 0 2.188-0.972 2.188-2.166v-6.193c0-1.194-0.981-2.166-2.188-2.166zM16.159 9.52v-6.192c0-0.171 0.14-0.31 0.311-0.31h6.252c0.172 0 0.313 0.139 0.313 0.31v6.192c-0.001 0.171-0.14 0.309-0.311 0.309-0 0-0.001 0-0.001 0h-6.252c0 0 0 0 0 0-0.171 0-0.31-0.138-0.311-0.309v-0zM9.906 23.554v6.193c-0.001 0.171-0.14 0.309-0.311 0.309-0 0-0.001 0-0.001 0h-6.251c-0 0-0.001 0-0.001 0-0.171 0-0.31-0.138-0.311-0.309v-6.193c0-0.17 0.14-0.309 0.313-0.309h6.251c0.172 0 0.313 0.139 0.313 0.309zM23.035 23.554v6.193c-0.001 0.171-0.14 0.309-0.311 0.309-0 0-0.001 0-0.001 0h-6.252c0 0 0 0 0 0-0.171 0-0.31-0.138-0.311-0.309v-6.193c0-0.17 0.14-0.309 0.311-0.309h6.252c0.172 0 0.313 0.139 0.313 0.309zM36.162 29.748c-0.001 0.171-0.14 0.309-0.311 0.309-0 0-0.001 0-0.001 0h-6.251c-0 0-0.001 0-0.001 0-0.171 0-0.31-0.138-0.311-0.309v-6.193c0-0.17 0.14-0.309 0.313-0.309h6.251c0.172 0 0.313 0.139 0.313 0.309v6.193z"></path>
</symbol>
<symbol id="svg-ic-settings" viewBox="0 0 32 32">
<title>ic-settings</title>
<path d="M25.071 14.262h-17.272c-3.771-0.005-6.827-3.060-6.831-6.831v-0c0.005-3.771 3.060-6.827 6.831-6.831h17.272c3.771 0.005 6.827 3.060 6.831 6.831v0c-0.005 3.771-3.060 6.827-6.831 6.831h-0zM7.8 2.172c-2.903 0.004-5.255 2.356-5.258 5.258v0c0.004 2.903 2.356 5.255 5.258 5.258h0c2.903-0.004 5.255-2.356 5.258-5.258v-0c-0.004-2.903-2.356-5.255-5.258-5.258h-0zM25.071 2.172h-12.917c1.517 1.26 2.476 3.147 2.476 5.258s-0.959 3.998-2.465 5.249l-0.011 0.009h12.917c2.903-0.004 5.255-2.356 5.258-5.258v-0c-0.004-2.903-2.356-5.255-5.258-5.258h-0zM7.8 17.87h17.272c3.771 0.005 6.827 3.060 6.831 6.831v0c-0.005 3.771-3.060 6.827-6.831 6.831h-17.272c-3.771-0.005-6.827-3.060-6.831-6.831v-0c0.005-3.771 3.060-6.827 6.831-6.831h0zM25.071 29.961c2.903-0.004 5.255-2.356 5.258-5.259v-0c-0.004-2.903-2.356-5.255-5.258-5.258h-0c-2.903 0.004-5.255 2.356-5.258 5.258v0c0.004 2.903 2.356 5.255 5.258 5.259h0zM7.8 29.961h12.918c-1.518-1.26-2.477-3.147-2.477-5.259s0.959-3.999 2.466-5.25l0.011-0.009h-12.918c-2.903 0.004-5.255 2.356-5.258 5.258v0c0.004 2.903 2.356 5.255 5.258 5.259h0z"></path>
</symbol>
<symbol id="svg-ic-software" viewBox="0 0 32 32">
<title>ic-software</title>
<path d="M30.697 26.034c-0.044 0.092-1.139 2.29-5.015 4.104-3.862 1.806-5.388 1.858-5.549 1.858-0.397-0.001-0.728-0.284-0.802-0.659l-0.001-0.005-1.665-8.46c-0.559 0.085-1.129 0.143-1.711 0.143-0.584 0-1.152-0.058-1.711-0.143l-1.665 8.46c-0.075 0.38-0.406 0.663-0.803 0.664h-0c-0.161 0-1.687-0.052-5.549-1.859-3.876-1.813-4.971-4.011-5.016-4.103-0.052-0.105-0.082-0.229-0.082-0.359 0-0.252 0.112-0.478 0.289-0.631l0.001-0.001 6.408-5.458c-2.043-2.077-3.304-4.928-3.304-8.073 0-0.003 0-0.007 0-0.010v0.001c0-6.349 5.129-11.513 11.433-11.513s11.433 5.164 11.433 11.513c0 3.147-1.263 6.002-3.304 8.083l6.408 5.458c0.286 0.243 0.371 0.651 0.207 0.991zM3.037 25.822c0.518 0.641 1.665 1.784 3.878 2.818 2.147 1.006 3.489 1.42 4.209 1.589l1.518-7.711c-1.364-0.428-2.55-1.056-3.592-1.86l0.026 0.020-6.039 5.144zM25.747 11.502c0-5.44-4.393-9.864-9.794-9.864s-9.794 4.424-9.794 9.864c0 5.438 4.393 9.863 9.794 9.863s9.794-4.425 9.794-9.863zM22.829 20.678c-1.016 0.785-2.201 1.412-3.485 1.819l-0.081 0.022 1.517 7.712c0.716-0.17 2.059-0.583 4.21-1.589 2.211-1.034 3.358-2.175 3.876-2.819l-6.038-5.144zM15.953 17.671c-3.378 0-6.126-2.767-6.126-6.168 0-3.402 2.749-6.169 6.126-6.169 3.377 0 6.125 2.767 6.125 6.169 0 3.401-2.749 6.168-6.125 6.168zM15.953 6.983c-2.475 0-4.488 2.027-4.488 4.52 0 2.492 2.013 4.519 4.488 4.519 2.474 0 4.487-2.027 4.487-4.519 0-2.493-2.013-4.52-4.487-4.52z"></path>
</symbol>
<symbol id="svg-ic-up-snav-users" viewBox="0 0 32 32">
<title>ic-up-snav-users</title>
<path d="M21.914 17.526c0.378-0.659 0.715-1.357 0.973-2.11 1.040-0.354 1.837-1.554 1.95-3.053 0.091-1.402-0.446-2.635-1.328-3.187-0.25-4.214-1.445-8.362-7.509-8.362-6.066 0-7.261 4.147-7.51 8.362-0.882 0.552-1.419 1.787-1.328 3.195 0.114 1.493 0.91 2.691 1.95 3.045 0.259 0.76 0.602 1.464 0.982 2.128-6.053 1.701-9.28 5.232-9.28 10.302v0.515l0.467 0.213c3.579 1.634 9.080 2.611 14.718 2.611s11.139-0.978 14.718-2.611l0.467-0.213v-0.515c0-5.096-3.224-8.634-9.272-10.32zM8.758 12.259c-0.067-1.018 0.371-1.698 0.698-1.778l0.581-0.144 0.027-0.598c0.234-5.408 1.787-7.325 5.936-7.325 4.147 0 5.701 1.917 5.934 7.325l0.027 0.598 0.581 0.144c0.326 0.080 0.765 0.76 0.698 1.77-0.074 0.976-0.578 1.664-0.986 1.672l-0.586 0.011-0.166 0.56c-1.082 3.619-3.646 5.782-5.502 5.782s-4.421-2.163-5.504-5.784l-0.168-0.56-0.584-0.010c-0.408-0.008-0.912-0.696-0.986-1.664zM16 29.586c-5.17 0-10.187-0.838-13.573-2.256 0.218-4.184 3.12-6.997 8.594-8.394 1.416 1.798 3.232 2.941 4.979 2.941 1.752 0 3.573-1.15 4.99-2.957 5.469 1.382 8.366 4.202 8.582 8.41-3.386 1.418-8.403 2.256-13.573 2.256z"></path>
</symbol>
<symbol id="svg-ic-users" viewBox="0 0 32 32">
<title>ic-users</title>
<path d="M22.454 17.63c0.387-0.677 0.725-1.408 0.989-2.183 1.055-0.352 1.866-1.569 1.981-3.095 0.095-1.427-0.454-2.681-1.352-3.233-0.253-4.292-1.465-8.52-7.636-8.52-6.173 0-7.383 4.228-7.635 8.52-0.898 0.552-1.447 1.807-1.354 3.241 0.116 1.518 0.928 2.735 1.983 3.086 0.264 0.775 0.601 1.506 0.989 2.183-6.266 1.641-9.45 5.177-9.45 10.527 0 0.308 0.18 0.587 0.459 0.715 3.648 1.666 9.259 2.661 15.008 2.661 5.75 0 11.36-0.995 15.008-2.661 0.273-0.127 0.459-0.399 0.459-0.714 0-0 0-0.001 0-0.001v0c0-5.35-3.185-8.885-9.449-10.527zM9.017 12.25c-0.070-1.068 0.381-1.757 0.733-1.845l0.573-0.141 0.025-0.588c0.237-5.47 1.887-7.503 6.088-7.503s5.851 2.034 6.089 7.503l0.026 0.588 0.571 0.141c0.397 0.098 0.797 0.879 0.734 1.836-0.076 1.013-0.607 1.727-1.035 1.735l-0.574 0.011-0.165 0.549c-1.109 3.708-3.742 5.924-5.645 5.924s-4.536-2.216-5.645-5.924l-0.165-0.549-0.574-0.011c-0.428-0.008-0.959-0.724-1.034-1.727zM16.436 29.961c-5.289 0-10.425-0.861-13.883-2.313 0.201-4.456 3.085-7.284 8.793-8.635 1.443 1.849 3.304 3.021 5.090 3.021s3.647-1.173 5.091-3.021c5.707 1.351 8.591 4.179 8.793 8.635-3.46 1.452-8.595 2.313-13.884 2.313z"></path>
</symbol>
<symbol id="svg-incoming-invoices" viewBox="0 0 32 32">
<title>incoming-invoices</title>
<path d="M17.231 11.114h6.154v2.462h1.231v-2.462c-0.14-0.621-0.478-1.147-0.943-1.522l-0.005-0.004-7.2-6.622c-0.326-0.305-0.766-0.492-1.25-0.492-0.002 0-0.004 0-0.006 0h-9.92c-1.698 0-2.831 0.8-2.831 2.486v17.231c-0.018 0.105-0.029 0.225-0.029 0.349 0 1.183 0.959 2.142 2.142 2.142 0.123 0 0.244-0.010 0.361-0.030l-0.013 0.002h8.615v-1.231h-8.615c-1.009 0-1.231-0.234-1.231-1.231v-17.231c0-0.997 0.222-1.231 1.231-1.231h9.846v4.923c-0.018 0.105-0.029 0.225-0.029 0.349 0 1.183 0.959 2.142 2.142 2.142 0.123 0 0.244-0.010 0.361-0.030l-0.013 0.002zM22.055 9.785l-4.825 0.098c-1.009 0-1.231-0.234-1.231-1.231v-4.505l6.055 5.637zM29.206 21.28l-4.308-4.062c-0.243-0.194-0.554-0.311-0.893-0.311-0.372 0-0.711 0.142-0.967 0.374l0.001-0.001-4.357 4 0.898 0.935 3.803-3.717h1.231l3.754 3.668 0.837-0.886zM29.206 25.058l-4.308-4.062c-0.241-0.199-0.554-0.32-0.894-0.32-0.373 0-0.713 0.145-0.965 0.383l0.001-0.001-4.357 3.988 0.898 0.935 3.803-3.717h1.231l3.754 3.668 0.837-0.874zM29.206 28.751l-4.308-4.062c-0.241-0.199-0.554-0.32-0.894-0.32-0.373 0-0.713 0.145-0.965 0.383l0.001-0.001-4.357 3.988 0.898 0.935 3.803-3.717h1.231l3.754 3.668 0.837-0.874z"></path>
</symbol>
<symbol id="svg-in-invoices" viewBox="0 0 32 32">
<title>in-invoices</title>
<path d="M24.348 22.347h-1.391l-4.303 4.205-1.016-1.060 4.935-4.516c0.523-0.523 1.565-0.594 2.091-0.068l4.871 4.59-0.946 0.991-4.241-4.141zM24.348 18.087h-1.391l-4.303 4.203-1.016-1.060 4.935-4.515c0.523-0.525 1.565-0.594 2.091-0.068l4.871 4.589-0.946 0.992-4.241-4.141zM22.957 11.13h-6.957c-1.912 0-2.783-0.879-2.783-2.783v-5.565h-8.349c-1.137 0-1.39 0.257-1.39 1.391v19.478c0 1.134 0.253 1.391 1.39 1.391h6.958v1.391h-6.958c-1.909 0-2.781-0.879-2.781-2.783v-19.478c0-1.903 1.284-2.805 3.193-2.805h8.445c0.522 0 1.024 0.193 1.411 0.548l8.142 7.488c0.427 0.394 1.070 1.149 1.070 1.725v2.783h-1.391v-2.783zM14.607 3.263v5.085c0 1.134 0.253 1.391 1.393 1.391l5.455-0.11-6.848-6.367zM24.664 25.081l4.871 4.59-0.946 0.991-4.241-4.141h-1.391l-4.303 4.205-1.016-1.060 4.935-4.516c0.523-0.523 1.565-0.594 2.091-0.068z"></path>
</symbol>
<symbol id="svg-invoices" viewBox="0 0 32 32">
<title>invoices</title>
<path d="M28.808 9.834v20.338c0 0.784-0.478 1.458-1.219 1.717-0.736 0.258-1.533 0.029-2.022-0.584l-3.251-2.542c-0.056-0.070-0.178-0.102-0.168-0.083-0 0-0.001 0-0.002 0-0.067 0-0.128 0.030-0.168 0.078l-0 0-3.79 2.57c-0.338 0.395-0.835 0.645-1.391 0.65h-0.001c-0.536 0-1.040-0.234-1.387-0.642l-3.842-2.578c-0.058-0.066-0.125-0.056-0.173-0.078-0.068 0.001-0.129 0.034-0.168 0.084l-0 0-3.186 2.502c-0.334 0.426-0.849 0.697-1.427 0.697-0.215 0-0.421-0.037-0.612-0.106l0.013 0.004c-0.718-0.247-1.224-0.917-1.224-1.704 0-0.005 0-0.010 0-0.015v0.001-20.357c-1.827-0.288-3.246-1.878-3.246-3.941v-0.77c0-2.206 1.894-3.502 4.101-3.502h22.309c2.208 0 4.053 1.346 4.053 3.552v0.77c0 2.053-1.368 3.638-3.198 3.939zM6.39 30.142c0 0.102 0.050 0.171 0.147 0.206 0.099 0.032 0.182 0.008 0.245-0.072l3.184-2.502c0.341-0.432 0.85-0.685 1.397-0.696h0.035c0.536 0 1.038 0.234 1.386 0.642l3.845 2.579c0.058 0.067 0.128 0.077 0.166 0.077 0.001 0 0.001 0 0.002 0 0.066 0 0.125-0.030 0.164-0.076l0-0 3.792-2.57c0.334-0.401 0.834-0.655 1.393-0.655 0.576 0 1.089 0.269 1.42 0.688l0.003 0.004 3.25 2.541c0.066 0.080 0.147 0.102 0.242 0.070 0.099-0.034 0.147-0.104 0.147-0.206v-23.584c-0.001-0.121-0.099-0.218-0.219-0.219h-20.379c-0.121 0.001-0.218 0.098-0.219 0.219v23.555zM30.406 5.125c0-1.323-1.128-1.952-2.453-1.952h-22.309c-1.325 0-2.501 0.578-2.501 1.902v0.77c0 1.178 0.715 2.051 1.646 2.312v-1.57c0-1.003 0.816-1.819 1.819-1.819h20.379c1.003 0 1.819 0.816 1.819 1.819v1.608c0.923-0.277 1.598-1.154 1.598-2.301v-0.77zM9.563 12.786h7.827c0.442 0 0.8 0.358 0.8 0.8s-0.358 0.8-0.8 0.8h-7.827c-0.442 0-0.8-0.358-0.8-0.8s0.358-0.8 0.8-0.8v0zM9.563 15.97h12.803c0.442 0 0.8 0.358 0.8 0.8s-0.358 0.8-0.8 0.8v0h-12.803c-0.442 0-0.8-0.358-0.8-0.8s0.358-0.8 0.8-0.8v0zM9.613 19.205h12.803c0.442 0 0.8 0.358 0.8 0.8s-0.358 0.8-0.8 0.8v0h-12.803c-0.442 0-0.8-0.358-0.8-0.8s0.358-0.8 0.8-0.8v0z"></path>
</symbol>
<symbol id="svg-legal-n-subscriptions" viewBox="0 0 32 32">
<title>legal-n-subscriptions</title>
<path d="M31.639 3.249l-15.192 15.277-7.927-7.972c-0.17-0.171-0.275-0.407-0.275-0.667s0.105-0.496 0.275-0.667l-0 0c0.169-0.171 0.403-0.277 0.663-0.277s0.494 0.106 0.662 0.277l0 0 6.601 6.637 13.865-13.941c0.169-0.171 0.404-0.277 0.664-0.277s0.494 0.106 0.663 0.277l0 0c0.17 0.171 0.275 0.406 0.275 0.666s-0.105 0.496-0.275 0.666l0-0zM16.943 5.656h-12.034c-1.675 0-3.027 2.071-3.027 3.755v16.941c0 1.685 1.352 3.755 3.027 3.755h18.21c1.675 0 3.234-2.071 3.234-3.755v-11.294c0-0.521 0.226-1.060 0.744-1.060 0.52 0 1.139 0.538 1.139 1.060v11.294c0 2.726-2.406 5.641-5.116 5.641h-18.21c-2.709 0-4.909-2.916-4.909-5.641v-16.941c0-2.726 2.2-5.641 4.909-5.641h12.034c0.519 0.001 0.939 0.422 0.939 0.941 0 0.001 0 0.001 0 0.002v-0c0 0.001 0 0.001 0 0.002 0 0.519-0.42 0.94-0.939 0.941h-0z"></path>
</symbol>
<symbol id="svg-logs" viewBox="0 0 32 32">
<title>logs</title>
<path d="M31.418 17.112l-7.97 8.992-1.026-0.939 7.968-8.99c0.041-0.047 0.066-0.108 0.066-0.176s-0.025-0.129-0.066-0.176l0 0-7.968-8.989 1.026-0.939 7.968 8.99c0.562 0.635 0.562 1.594 0.002 2.227zM13.384 29.39l3.795-26.979 1.366 0.197-3.795 26.979-1.366-0.197zM9.509 25.165l-1.026 0.939-7.97-8.99c-0.261-0.295-0.421-0.686-0.421-1.114s0.16-0.818 0.423-1.115l-0.002 0.002 7.97-8.992 1.026 0.939-7.97 8.99c-0.041 0.047-0.066 0.108-0.066 0.176s0.025 0.129 0.066 0.176l-0-0 7.97 8.989z"></path>
</symbol>
<symbol id="svg-microsoft" viewBox="0 0 32 32">
<title>microsoft</title>
<path d="M16 16h-12.308v-12.308h12.308v12.308zM4.923 14.769h9.846v-9.846h-9.846v9.846zM29.538 16h-12.308v-12.308h12.308v12.308zM18.462 14.769h9.846v-9.846h-9.846v9.846zM16 29.538h-12.308v-12.308h12.308v12.308zM4.923 28.308h9.846v-9.846h-9.846v9.846zM29.538 29.538h-12.308v-12.308h12.308v12.308zM18.462 28.308h9.846v-9.846h-9.846v9.846z"></path>
</symbol>
<symbol id="svg-my-licenses" viewBox="0 0 32 32">
<title>my-licenses</title>
<path d="M16 7.84c-0.011-0-0.024-0-0.037-0-2.631 0-4.763 2.133-4.763 4.763s2.133 4.763 4.763 4.763c2.631 0 4.763-2.132 4.763-4.763v0c0-0.004 0-0.008 0-0.012 0-2.615-2.113-4.737-4.725-4.751h-0.001zM16 16.172c-0.004 0-0.008 0-0.012 0-1.971 0-3.569-1.598-3.569-3.569s1.598-3.569 3.569-3.569c1.971 0 3.569 1.598 3.569 3.569v0c0 0.003 0 0.007 0 0.011 0 1.965-1.592 3.557-3.557 3.558h-0zM29.305 23.175l-7.003-4.295c1.59-1.603 2.572-3.811 2.572-6.248 0-4.901-3.973-8.874-8.874-8.874s-8.874 3.973-8.874 8.874c0 2.437 0.982 4.645 2.573 6.248l-0.001-0.001-7.015 4.295c-0.145 0.112-0.237 0.285-0.237 0.48 0 0.089 0.019 0.174 0.054 0.25l-0.002-0.004c1.464 1.25 3.139 2.318 4.951 3.135l0.132 0.053c1.759 0.831 3.811 1.352 5.976 1.439l0.031 0.001c0.283-0.001 0.519-0.199 0.578-0.464l0.001-0.004 1.403-6.302c0.012-0.039 0.018-0.083 0.018-0.129s-0.007-0.091-0.019-0.133l0.001 0.003c0.148 0.012 0.283 0.025 0.431 0.025s0.283-0.012 0.431-0.025c-0.013 0.047-0.021 0.102-0.021 0.158 0 0.036 0.003 0.070 0.009 0.104l-0-0.004 1.415 6.302c0.059 0.272 0.3 0.468 0.578 0.468 2.195-0.088 4.247-0.609 6.103-1.481l-0.097 0.041c1.944-0.87 3.619-1.938 5.112-3.212l-0.029 0.024c0.033-0.071 0.052-0.155 0.052-0.243 0-0.198-0.098-0.374-0.247-0.482l-0.002-0.001zM14.425 21.502l-1.305 5.822c-1.86-0.168-3.572-0.636-5.144-1.357l0.097 0.040c-1.617-0.61-3.014-1.356-4.295-2.256l0.061 0.041 6.769-4.111c1.080 0.837 2.386 1.439 3.81 1.702l0.055 0.008c-0.012 0.037-0.037 0.074-0.049 0.111zM8.308 12.603c0.028-4.227 3.461-7.643 7.692-7.643 4.248 0 7.692 3.444 7.692 7.692s-3.444 7.692-7.692 7.692v0c-4.252-0.017-7.692-3.468-7.692-7.722 0-0.007 0-0.014 0-0.021v0.001zM23.926 26.006c-1.474 0.681-3.186 1.149-4.986 1.313l-0.061 0.004-1.305-5.822c-0.012-0.037-0.037-0.074-0.049-0.111 1.479-0.272 2.784-0.873 3.885-1.726l-0.020 0.015 6.769 4.111c-1.22 0.859-2.617 1.605-4.103 2.172l-0.131 0.044z"></path>
</symbol>
<symbol id="svg-my-products" viewBox="0 0 32 32">
<title>my-products</title>
<path d="M16.615 2.474l-12.923 3.434v17.809l12.923 5.514 12.923-5.514v-17.809l-12.923-3.434zM16 27.545l-11.077-4.591v-15.409l11.077 2.966v17.034zM5.822 6.535l10.794-2.769 10.794 2.769-10.794 2.88-10.794-2.88zM28.308 22.954l-11.077 4.591v-17.034l11.077-2.966v15.409z"></path>
</symbol>
<symbol id="svg-my-products-new" viewBox="0 0 32 32">
<title>my-products-new</title>
<path d="M16 1.011l-13.606 4.462v18.344l13.606 7.171 13.606-7.171v-18.344l-13.606-4.462zM15.2 28.803l-11.206-5.976v-15.23l11.206 3.859v17.347zM5.162 6.291l10.838-3.605 10.838 3.605-10.838 3.742-10.838-3.742zM28.006 22.827l-11.206 5.976v-17.347l11.206-3.859v15.23z"></path>
</symbol>
<symbol id="svg-offices" viewBox="0 0 32 32">
<title>offices</title>
<path d="M28.808 28.34c0 2.659-8.099 3.66-12.808 3.66s-12.552-1.001-12.552-3.66c0-2.397 6.443-3.083 9.608-3.275-2.861-3.753-7.073-9.908-7.073-13.644 0-5.708 4.551-10.352 10.145-10.352 5.596 0 10.147 4.644 10.147 10.352 0 3.736-4.212 9.891-7.075 13.644 3.196 0.193 9.608 0.88 9.608 3.275zM24.955 11.421c0-4.965-3.96-9.005-8.827-9.005s-8.825 4.040-8.825 9.005c0 4.351 6.895 13.029 8.825 15.376 1.932-2.348 8.827-11.027 8.827-15.376zM18.192 26.364c-0.614 0.778-1.127 1.401-1.65 2.015l0.084-0.101-0.497 0.58-0.497-0.58c-0.441-0.515-0.954-1.139-1.456-1.771l-0.111-0.145c-6.143 0.24-9.131 1.423-9.297 1.992 0.207 0.683 4.163 2.312 11.233 2.312s11.283-1.629 11.489-2.34c-0.165-0.544-3.156-1.725-9.297-1.963zM9.727 11.421c0-3.601 2.872-6.531 6.401-6.531s6.401 2.929 6.401 6.531c0 3.601-2.872 6.531-6.401 6.531s-6.401-2.929-6.401-6.531zM21.209 11.421c0-2.859-2.28-5.184-5.081-5.184s-5.080 2.325-5.080 5.184 2.279 5.184 5.080 5.184 5.081-2.325 5.081-5.184z"></path>
</symbol>
<symbol id="svg-orders" viewBox="0 0 32 32">
<title>orders</title>
<path d="M28.185 10.896h-5.194l-3.212-6.847c-0.1-0.21-0.311-0.352-0.555-0.352-0.265 0-0.491 0.168-0.576 0.403l-0.001 0.004c-0.023 0.063-0.036 0.135-0.036 0.21 0 0.098 0.022 0.191 0.063 0.273l-0.002-0.004 2.966 6.31h-11.274l2.966-6.31c0.038-0.079 0.060-0.171 0.060-0.269 0-0.248-0.144-0.462-0.352-0.564l-0.004-0.002c-0.077-0.038-0.167-0.060-0.262-0.060-0.244 0-0.455 0.146-0.549 0.356l-0.002 0.004-3.212 6.847h-5.194c-0.361 0-0.706 0.148-0.96 0.406s-0.395 0.61-0.394 0.975v2.215c-0.001 0.364 0.14 0.714 0.394 0.974 0.254 0.258 0.599 0.406 0.96 0.407h0.197l0.517 11.028c0.041 1.443 1.203 2.601 2.643 2.637l0.003 0h17.637c1.449-0.031 2.616-1.192 2.658-2.635l0-0.004 0.517-11.026h0.197c0.361-0.001 0.706-0.148 0.96-0.406 0.254-0.26 0.395-0.61 0.394-0.975v-2.215c0-0.002 0-0.005 0-0.008 0-0.376-0.15-0.718-0.394-0.967l0 0c-0.244-0.249-0.584-0.404-0.96-0.406h-0zM24.812 28.294h-17.637c-0.784-0.038-1.407-0.679-1.415-1.467v-0.001l-0.517-10.953h21.514l-0.517 10.953c-0.009 0.793-0.638 1.437-1.425 1.468l-0.003 0zM28.308 14.625c0 0.074-0.053 0.137-0.123 0.144h-24.369c-0.037-0-0.069-0.017-0.091-0.043l-0-0c-0.020-0.024-0.033-0.055-0.033-0.089 0-0.004 0-0.008 0.001-0.013l-0 0.001v-2.342c-0-0.004-0.001-0.008-0.001-0.012 0-0.034 0.012-0.065 0.033-0.089l-0 0c0.022-0.026 0.055-0.043 0.091-0.043h4.603l-0.246 0.551c-0.038 0.084-0.061 0.182-0.061 0.285 0 0.079 0.013 0.156 0.038 0.227l-0.001-0.005c0.080 0.251 0.307 0.431 0.577 0.441l0.001 0c0.253-0.007 0.468-0.16 0.565-0.377l0.002-0.004 0.492-1.118h12.431l0.492 1.118c0.098 0.222 0.314 0.375 0.565 0.382l0.001 0c0.271-0.009 0.498-0.19 0.577-0.436l0.001-0.004c0.023-0.066 0.036-0.143 0.036-0.222 0-0.103-0.022-0.201-0.063-0.289l0.002 0.004-0.246-0.551h4.603c0.070 0.006 0.123 0.069 0.123 0.144v2.341z"></path>
</symbol>
<symbol id="svg-outgoing-invoices" viewBox="0 0 32 32">
<title>outgoing-invoices</title>
<path d="M17.231 11.114h6.154v2.462h1.231v-2.462c-0.14-0.621-0.478-1.147-0.943-1.522l-0.005-0.004-7.2-6.622c-0.326-0.305-0.766-0.492-1.25-0.492-0.002 0-0.004 0-0.006 0h-9.92c-1.698 0-2.831 0.8-2.831 2.486v17.231c-0.018 0.105-0.029 0.225-0.029 0.349 0 1.183 0.959 2.142 2.142 2.142 0.123 0 0.244-0.010 0.361-0.030l-0.013 0.002h8.615v-1.231h-8.615c-1.009 0-1.231-0.234-1.231-1.231v-17.231c0-0.997 0.222-1.231 1.231-1.231h9.846v4.923c-0.018 0.105-0.029 0.225-0.029 0.349 0 1.183 0.959 2.142 2.142 2.142 0.123 0 0.244-0.010 0.361-0.030l-0.013 0.002zM22.055 9.785l-4.825 0.098c-1.009 0-1.231-0.234-1.231-1.231v-4.505l6.055 5.637zM18.683 25.169l4.406 4.062c0.546 0.449 1.342 0.423 1.858-0.062l4.258-3.988-0.898-0.935-3.705 3.717h-1.231l-3.852-3.668-0.837 0.874zM18.683 21.477l4.406 4.062c0.546 0.449 1.342 0.423 1.858-0.062l4.258-3.988-0.898-0.935-3.705 3.717h-1.231l-3.852-3.668-0.837 0.874zM18.683 17.785l4.406 4.062c0.546 0.449 1.342 0.423 1.858-0.062l4.258-3.988-0.898-0.935-3.705 3.717h-1.231l-3.852-3.668-0.837 0.874z"></path>
</symbol>
<symbol id="svg-out-invoices" viewBox="0 0 32 32">
<title>out-invoices</title>
<path d="M22.928 27.232l-5.213-4.797 0.989-1.036 4.554 4.329h1.455l4.377-4.396 1.062 1.108-5.039 4.721c-0.545 0.547-1.635 0.621-2.185 0.070zM22.928 22.868l-5.213-4.797 0.989-1.036 4.554 4.329h1.455l4.377-4.394 1.062 1.107-5.039 4.721c-0.545 0.547-1.635 0.621-2.185 0.070zM23.273 11.636h-7.273c-1.999 0-2.909-0.919-2.909-2.909v-5.818h-8.727c-1.19 0-1.455 0.269-1.455 1.455v20.364c0 1.185 0.265 1.455 1.455 1.455h7.273v1.455h-7.273c-1.997 0-2.909-0.919-2.909-2.909v-20.364c0-1.99 1.343-2.932 3.34-2.932h8.828c0.545 0 1.071 0.202 1.475 0.573l8.511 7.828c0.447 0.412 1.12 1.201 1.12 1.804v2.909h-1.455v-2.909zM14.545 3.411v5.316c0 1.185 0.265 1.455 1.455 1.455l5.705-0.115-7.159-6.656zM23.258 30.092h1.455l4.377-4.396 1.062 1.108-5.039 4.721c-0.545 0.547-1.635 0.621-2.185 0.070l-5.213-4.797 0.989-1.036 4.554 4.329z"></path>
</symbol>
<symbol id="svg-partners" viewBox="0 0 32 32">
<title>partners</title>
<path d="M26.572 7.385h-5.649v-0.726c0-1.637-1.329-2.966-2.966-2.966h-3.914c-1.637 0-2.966 1.329-2.966 2.966v0.726h-5.649c-1.637 0-2.966 1.329-2.966 2.966v16.222c0 1.637 1.329 2.966 2.966 2.966h21.145c1.637 0 2.966-1.329 2.966-2.966v-16.222c0-1.637-1.329-2.966-2.966-2.966zM12.308 6.658c0-0.001 0-0.002 0-0.002 0-0.957 0.776-1.733 1.733-1.733 0.001 0 0.002 0 0.003 0h3.914c0.001 0 0.002 0 0.002 0 0.957 0 1.733 0.776 1.733 1.733 0 0.001 0 0.002 0 0.003v-0 0.726h-7.385v-0.726zM5.428 8.615h21.145c0.001 0 0.002 0 0.002 0 0.957 0 1.733 0.776 1.733 1.733 0 0.001 0 0.002 0 0.003v-0 6.88h-8.615v-1.231c-0.225-0.566-0.665-1.006-1.216-1.226l-0.015-0.005h-4.923c-0.566 0.225-1.006 0.665-1.226 1.216l-0.005 0.015v1.231h-8.615v-6.88c0-0.001 0-0.002 0-0.002 0-0.957 0.776-1.733 1.733-1.733 0.001 0 0.002 0 0.003 0h-0zM18.462 16v3.692h-4.923v-3.692h4.923zM26.572 28.308h-21.145c-0.001 0-0.002 0-0.002 0-0.957 0-1.733-0.776-1.733-1.733 0-0.001 0-0.002 0-0.003v0-8.111h8.615v1.231c0.22 0.565 0.666 1.010 1.231 1.231h4.923c0.566-0.225 1.006-0.665 1.226-1.216l0.005-0.015v-1.231h8.615v8.111c0 0.001 0 0.002 0 0.002 0 0.957-0.776 1.733-1.733 1.733-0.001 0-0.002 0-0.003 0h0z"></path>
</symbol>
<symbol id="svg-pricing" viewBox="0 0 32 32">
<title>pricing</title>
<path d="M16.665 15.963h-0.025c-0.136 0.018-0.293 0.029-0.452 0.029-1.082 0-2.052-0.482-2.707-1.243l-0.004-0.005c-0.090-0.16-0.144-0.351-0.144-0.555 0-0.259 0.086-0.499 0.232-0.691l-0.002 0.003c0.626-0.672 1.516-1.090 2.504-1.090 0.3 0 0.591 0.039 0.868 0.111l-0.024-0.005c0.935 0.145 1.856 0.385 2.745 0.714l0.185 0.062 0.418-1.231-0.197-0.062c-0.788-0.344-1.732-0.66-2.707-0.898l-0.123-0.025v-2.462h-1.231l-0.037 2.572c-0.053-0.002-0.115-0.004-0.177-0.004-1.334 0-2.524 0.618-3.299 1.583l-0.006 0.008c-0.278 0.396-0.444 0.887-0.444 1.418 0 0.422 0.105 0.82 0.291 1.168l-0.007-0.013c0.652 1.218 2.215 1.92 4.295 1.92h0.049c0.135-0.019 0.291-0.030 0.45-0.030 1.063 0 2.012 0.489 2.634 1.254l0.005 0.006c0.091 0.162 0.144 0.355 0.144 0.561 0 0.262-0.086 0.503-0.232 0.698l0.002-0.003c-0.625 0.653-1.504 1.060-2.478 1.060-0.291 0-0.574-0.036-0.844-0.105l0.024 0.005c-1.021-0.159-1.933-0.403-2.802-0.733l-0.127-0.042-0.406 1.231 0.222 0.074c0.794 0.427 1.717 0.745 2.693 0.904l0.051 0.007v2.462h1.231v-2.462c1.366 0.037 2.671-0.58 3.508-1.662 0.54-0.766 0.603-1.771 0.16-2.597-0.652-1.231-2.191-1.932-4.234-1.932zM16.615 2.462c-7.817 0-14.154 6.337-14.154 14.154s6.337 14.154 14.154 14.154 14.154-6.337 14.154-14.154c-0.010-7.813-6.341-14.144-14.154-14.154zM16.615 29.538c-7.137 0-12.923-5.786-12.923-12.923s5.786-12.923 12.923-12.923 12.923 5.786 12.923 12.923c-0.009 7.134-5.79 12.914-12.923 12.923z"></path>
</symbol>
<symbol id="svg-risk-management" viewBox="0 0 32 32">
<title>risk-management</title>
<path d="M31.611 28.211c-0.482 0.79-1.344 1.263-2.307 1.263h-26.669c-0.012 0-0.025 0-0.039 0-0.954 0-1.792-0.501-2.264-1.254l-0.007-0.011c-0.226-0.359-0.361-0.795-0.361-1.263s0.134-0.904 0.367-1.273l-0.006 0.010 13.336-21.893c0.477-0.763 1.312-1.263 2.264-1.263 0.014 0 0.029 0 0.043 0l-0.002-0c0.965 0 1.827 0.472 2.309 1.263l13.336 21.893c0.227 0.359 0.361 0.796 0.361 1.264s-0.135 0.905-0.367 1.274l0.006-0.010zM30.073 26.525l-13.336-21.893c-0.159-0.253-0.437-0.42-0.753-0.42-0.006 0-0.013 0-0.019 0l0.001-0c-0.005-0-0.010-0-0.016-0-0.316 0-0.594 0.166-0.75 0.416l-0.002 0.004-13.334 21.893c-0.076 0.119-0.121 0.265-0.121 0.421s0.045 0.302 0.123 0.424l-0.002-0.003c0.156 0.254 0.433 0.421 0.749 0.421 0.007 0 0.015-0 0.022-0l-0.001 0h26.669c0.461 0 0.691-0.295 0.77-0.419 0.076-0.12 0.121-0.266 0.121-0.422s-0.045-0.302-0.123-0.425l0.002 0.003zM15.968 25.683c-0.736 0-1.332-0.566-1.332-1.263s0.596-1.263 1.332-1.263c0.736 0 1.332 0.566 1.332 1.263s-0.596 1.263-1.332 1.263zM15.158 10.947h1.684v10.105h-1.684v-10.105z"></path>
</symbol>
<symbol id="svg-server" viewBox="0 0 32 32">
<title>server</title>
<path d="M27.555 30.403h-23.128c-2.438 0-4.422-1.891-4.422-4.216l0.035-9.56 3.696-11.979c0.55-1.782 2.296-3.027 4.243-3.027h16.024c1.947 0 3.693 1.245 4.243 3.027l3.731 12.213v9.326c0 2.325-1.982 4.216-4.422 4.216zM26.589 5.112c-0.338-1.085-1.4-1.842-2.586-1.842h-16.024c-1.186 0-2.25 0.757-2.584 1.842l-3.304 10.712h27.8l-3.302-10.712zM30.248 17.472h-28.514v8.715c0 1.416 1.208 2.566 2.693 2.566h23.128c1.485 0 2.693-1.15 2.693-2.566v-8.715zM4.4 22.419h9.416v1.648h-9.416v-1.648z"></path>
</symbol>
<symbol id="svg-servers" viewBox="0 0 32 32">
<title>servers</title>
<path d="M25.846 28.308h-19.692c-1.975-0.152-3.54-1.717-3.691-3.679l-0.001-0.014v-7.385l2.462-9.846c0.418-1.366 2.178-3.68 3.68-3.68h14.782c1.502 0 3.274 2.314 3.692 3.68l2.462 9.846v7.385c-0.152 1.975-1.717 3.54-3.679 3.691l-0.014 0.001zM3.692 17.231v7.385c0.174 1.284 1.178 2.288 2.447 2.46l0.015 0.002h19.692c1.284-0.174 2.288-1.178 2.46-2.447l0.002-0.015v-7.385l-2.462-9.846c-0.258-0.837-1.551-2.462-2.462-2.462h-14.769c-0.911 0-2.203 1.625-2.462 2.462l-2.462 9.846zM28.308 18.462h-24.615v-1.231h24.615v1.231zM13.538 23.385h-6.154v-1.231h6.154v1.231z"></path>
</symbol>
<symbol id="svg-shopping-cart" viewBox="0 0 32 32">
<title>shopping-cart</title>
<path d="M25.846 20.923h-16c-1.274-0.195-2.267-1.188-2.46-2.445l-0.002-0.016-1.231-13.538h-3.692v-1.231h3.692c0.658 0.049 1.182 0.572 1.231 1.231l0.345 3.643 21.809 0.049-1.231 9.846c-0.199 1.271-1.19 2.263-2.445 2.459l-0.017 0.002zM7.852 9.834l0.763 8.628c0.228 0.56 0.671 1.003 1.231 1.231h16c0.561-0.232 0.999-0.669 1.225-1.216l0.005-0.015 0.972-8.615-20.197-0.012zM24.615 24.615c0.011-0 0.024-0.001 0.037-0.001 0.68 0 1.231 0.551 1.231 1.231 0 0.009-0 0.018-0 0.026l0-0.001c-0.004 0.687-0.561 1.243-1.249 1.243-0.69 0-1.249-0.559-1.249-1.249 0-0.683 0.549-1.239 1.23-1.249h0.001zM24.615 28.308c-1.359 0-2.462-1.102-2.462-2.462s1.102-2.462 2.462-2.462c1.359 0 2.462 1.102 2.462 2.462v0c-0.022 1.351-1.111 2.44-2.459 2.462l-0.002 0zM11.077 24.615c0.011-0 0.024-0.001 0.037-0.001 0.68 0 1.231 0.551 1.231 1.231 0 0.009-0 0.018-0 0.026l0-0.001c-0.004 0.687-0.562 1.243-1.249 1.243-0.69 0-1.249-0.559-1.249-1.249 0-0.683 0.549-1.239 1.23-1.249h0.001zM11.077 28.308c-1.359 0-2.462-1.102-2.462-2.462s1.102-2.462 2.462-2.462c1.359 0 2.462 1.102 2.462 2.462v0c-0.022 1.351-1.111 2.44-2.459 2.462l-0.002 0z"></path>
</symbol>
<symbol id="svg-subscriptions" viewBox="0 0 32 32">
<title>subscriptions</title>
<path d="M21.268 28.455h-15.594c-1.819-0.227-3.213-1.763-3.213-3.625 0-0.024 0-0.047 0.001-0.071l-0 0.004v-14.769c-0-0.020-0.001-0.043-0.001-0.067 0-1.862 1.394-3.399 3.195-3.623l0.018-0.002h11.557c0.343 0 0.622 0.278 0.622 0.622s-0.278 0.622-0.622 0.622h-11.557c-1.136 0.216-1.982 1.201-1.982 2.384 0 0.023 0 0.046 0.001 0.069l-0-0.003v14.769c-0 0.017-0.001 0.037-0.001 0.057 0 1.185 0.846 2.172 1.967 2.39l0.015 0.003h15.594c1.189-0.21 2.085-1.22 2.117-2.446l0-0.003v-11.077c-0.007-0.033-0.010-0.071-0.010-0.109 0-0.294 0.217-0.538 0.499-0.579l0.003-0c0.38 0.027 0.686 0.315 0.738 0.685l0 0.004v11.077c-0.026 1.911-1.473 3.477-3.33 3.691l-0.017 0.002zM14.449 18.412l-5.182-5.206c-0.112-0.112-0.182-0.266-0.182-0.437s0.070-0.325 0.182-0.437l0-0c0.108-0.114 0.261-0.185 0.431-0.185s0.322 0.071 0.431 0.185l0 0 4.32 4.332 13.982-14.031c0.112-0.112 0.266-0.182 0.437-0.182s0.325 0.070 0.437 0.182l0 0c0.234 0.244 0.234 0.63 0 0.874l-14.855 14.905z"></path>
</symbol>
<symbol id="svg-sub-shopping-cart-png" viewBox="0 0 32 32">
<title>sub-shopping-cart-png</title>
<path d="M30.222 17.778c-0.279 1.696-1.842 3.556-3.556 3.556h-16c-1.712 0-3.275-1.858-3.556-3.556l-1.778-14.222h-5.333v-1.778h5.333c0.965 0 1.621 0.82 1.778 1.778l0.496 3.486 24.393 0.069-1.778 10.667zM7.796 8.88l1.093 8.898c0.087 0.523 1.25 1.778 1.778 1.778h16c0.53 0 1.692-1.255 1.778-1.778l1.404-8.889-22.053-0.009zM12.444 23.111c1.922 0 3.556 1.623 3.556 3.556s-1.634 3.556-3.556 3.556-3.57-1.611-3.57-3.543c0-1.934 1.648-3.568 3.57-3.568zM12.444 28.444c1.047 0 1.829-0.702 1.829-1.751 0-1.047-0.782-1.804-1.829-1.804-1.049 0-1.778 0.729-1.778 1.778s0.729 1.778 1.778 1.778zM24.889 23.111c1.922 0 3.556 1.623 3.556 3.556s-1.634 3.556-3.556 3.556-3.57-1.611-3.57-3.543c0-1.934 1.648-3.568 3.57-3.568zM24.889 28.444c1.049 0 1.829-0.702 1.829-1.751 0-1.047-0.78-1.804-1.829-1.804s-1.778 0.729-1.778 1.778c0 1.049 0.729 1.778 1.778 1.778z"></path>
</symbol>
<symbol id="svg-usage" viewBox="0 0 32 32">
<title>usage</title>
<path d="M28.323 24.154c-0.038 0.054-0.069 0.112-0.109 0.165-0.026 0.037-0.058 0.067-0.083 0.102-0.192 0.248-0.395 0.49-0.603 0.73s-0.419 0.472-0.638 0.698c-0.086 0.088-0.158 0.182-0.248 0.27-0.014 0.014-0.037 0.013-0.053 0.026-2.214 2.154-5.089 3.639-8.292 4.124l-0.084 0.010c-0.67 0.105-1.443 0.165-2.23 0.165-3.413 0-6.563-1.127-9.097-3.030l0.039 0.028c-6.731-5.006-8.13-14.552-3.12-21.278 2.507-3.365 5.933-5.376 10.003-5.978 0.014-0.002 0.024 0.011 0.038 0.011 8.285-1.192 16.005 4.56 17.218 12.842 0.597 4.069-0.386 7.926-2.741 11.115zM26.378 24.469c0.267-0.301 0.531-0.61 0.776-0.939 1.133-1.499 1.976-3.283 2.408-5.222l0.017-0.091-11.682-1.986 8.278 8.466 0.054-0.053c0.053-0.058 0.094-0.117 0.147-0.174zM4.866 6.954c-4.574 6.141-3.296 14.856 2.848 19.427 5.366 3.99 12.701 3.517 17.518-0.758l-9.696-9.915 0.018-0.018c-0.021-0.022-0.054-0.027-0.072-0.051-0.065-0.085-0.111-0.188-0.129-0.3l-0.001-0.004-2.013-13.736c-3.4 0.622-6.318 2.462-8.474 5.355zM29.755 13.229c-1.078-7.352-7.776-12.506-15.101-11.784l1.938 13.222 13.229 2.25c0.055-0.477 0.087-1.029 0.087-1.588 0-0.741-0.056-1.469-0.163-2.18l0.010 0.080z"></path>
</symbol>
<symbol id="svg-users" viewBox="0 0 32 32">
<title>users</title>
<path d="M21.268 17.398c0.346-0.599 0.635-1.231 0.862-1.884 1.033-0.488 1.735-1.521 1.735-2.718 0-0.002 0-0.004 0-0.005v0c0.017-0.122 0.027-0.263 0.027-0.407 0-0.992-0.471-1.873-1.201-2.433l-0.007-0.005c-0.222-3.758-1.28-7.454-6.683-7.454s-6.462 3.696-6.683 7.454c-0.743 0.572-1.218 1.461-1.218 2.462 0 0.135 0.009 0.269 0.026 0.4l-0.002-0.015c0.005 1.167 0.681 2.228 1.735 2.724 0.234 0.66 0.529 1.295 0.886 1.897-5.391 1.515-8.271 4.657-8.271 9.179v0.468l0.418 0.185c3.897 1.475 8.403 2.329 13.108 2.329s9.211-0.854 13.37-2.415l-0.262 0.086 0.418-0.185v-0.468c0-4.546-2.868-7.689-8.258-9.191zM9.551 12.692c-0.022-0.097-0.034-0.208-0.034-0.322 0-0.516 0.255-0.973 0.645-1.251l0.005-0.003 0.517-0.135 0.025-0.529c0.209-4.82 1.6-6.532 5.292-6.532s5.083 1.712 5.292 6.529l0.012 0.529 0.529 0.135c0.502 0.356 0.745 0.976 0.615 1.578 0.052 0.631-0.298 1.228-0.874 1.49l-0.529 0.012-0.148 0.492c-0.96 3.23-3.249 5.163-4.898 5.163s-3.938-1.934-4.898-5.162l-0.16-0.505h-0.517c-0.523-0.243-0.879-0.764-0.879-1.368 0-0.044 0.002-0.087 0.005-0.129l-0 0.006zM16 28.142c-0.197 0.004-0.429 0.007-0.662 0.007-4.1 0-8.027-0.738-11.656-2.089l0.231 0.075c0.197-3.734 2.782-6.235 7.655-7.492 0.878 1.575 2.533 2.623 4.434 2.623 1.905 0 3.564-1.053 4.427-2.609l0.013-0.026c4.874 1.232 7.458 3.745 7.643 7.504-3.398 1.276-7.325 2.014-11.425 2.014-0.233 0-0.465-0.002-0.696-0.007l0.035 0.001z"></path>
</symbol>
<symbol id="svg-virtual-dc" viewBox="0 0 32 32">
<title>virtual-dc</title>
<path d="M28.952 29.714h-15.238c-1.504 0-3.048-1.423-3.048-3.048v-1.524c0-1.624 1.544-3.048 3.048-3.048h15.238c1.506 0 3.048 1.423 3.048 3.048v1.524c0 1.624-1.542 3.048-3.048 3.048zM30.476 25.143c0-0.739-0.84-1.524-1.524-1.524h-15.238c-0.684 0-1.524 0.785-1.524 1.524v1.524c0 0.739 0.84 1.524 1.524 1.524h15.238c0.684 0 1.524-0.785 1.524-1.524v-1.524zM13.714 25.143h4.571v1.524h-4.571v-1.524zM28.952 20.571h-15.238c-1.504 0-3.048-1.423-3.048-3.048v-1.524c0-1.624 1.544-3.048 3.048-3.048h15.238c1.506 0 3.048 1.423 3.048 3.048v1.524c0 1.624-1.542 3.048-3.048 3.048zM30.476 16c0-0.739-0.84-1.524-1.524-1.524h-15.238c-0.684 0-1.524 0.785-1.524 1.524v1.524c0 0.739 0.84 1.524 1.524 1.524h15.238c0.684 0 1.524-0.785 1.524-1.524v-1.524zM13.714 16h4.571v1.524h-4.571v-1.524zM15.238 3.81c-4.134 0-7.18 3.433-7.342 7.365v1.271h-1.317c-3.106 0.322-5.263 3.366-5.263 6.348 0 2.482 0.626 4.824 3.255 4.826h3.048v1.524h-3.048c-3.384 0.038-4.571-2.612-4.571-6.35 0-3.557 2.754-7.604 6.58-7.619 0.518-4.457 2.734-8.712 8.658-8.888 7.899-0.235 8.45 7.619 8.45 7.619h-1.315s-0.119-6.095-7.134-6.095z"></path>
</symbol>
</defs>
</svg>
