<svg xmlns="http://www.w3.org/2000/svg" width="70" height="30" viewBox="0 0 70 30">
    <g fill="none" fill-rule="evenodd">
        <g fill="#333">
            <path d="M44.163 12.99H42.65V2.357h-3.738V1.03h8.965v1.326h-3.714zM58.296 12.99l-1.44-3.705h-4.743l-1.424 3.705h-1.521L53.838.982h1.358L59.86 12.99h-1.563zm-1.89-5.038l-1.34-3.624-.573-1.791a24.307 24.307 0 0 1-.516 1.791L52.62 7.952h3.787zM63.178 12.99V1.031h1.505V11.65h5.227v1.341h-6.732z"/>
        </g>
        <g fill="#333">
            <path d="M51.95 29.293h-1.758l-6.405-9.93h-.065l.04.662c.066.993.099 1.854.099 2.585v6.683h-1.39V17.334h1.741l.368.58 3.927 6.07 2.086 3.247h.065a59.593 59.593 0 0 1-.065-1.402 48.729 48.729 0 0 1-.05-1.747v-6.748h1.407v11.959zM63.556 29.293h-6.683V17.334h6.683v1.325h-5.178v3.73h4.875v1.309h-4.875v4.27h5.178z"/>
        </g>
        <path fill="#E55F3B" d="M24.124 29.615c-8.165 0-14.808-6.642-14.808-14.807S15.959 0 24.124 0 38.93 6.643 38.93 14.808 32.29 29.615 24.124 29.615zm0-28.12c-7.34 0-13.312 5.973-13.312 13.313 0 7.34 5.971 13.312 13.312 13.312 7.34 0 13.312-5.972 13.312-13.312 0-7.34-5.972-13.312-13.312-13.312z"/>
        <path fill="#333" d="M5.251 13.29H3.738V2.656H0V1.331h8.965v1.325H5.251z"/>
    </g>
</svg>
